<?xml version="1.0" encoding="UTF-8"?>
<!-- Generated by Pixelmator Pro 3.7.1 -->
<svg width="612" height="792" viewBox="0 0 612 792" xmlns="http://www.w3.org/2000/svg">
    <path id="Path" fill="#ffffff" stroke="none" d="M 0 0 L 612 0 L 612 792 L 0 792 Z"/>
    <path id="path1" fill="#000000" stroke="none" d="M 36 54 L 585 54 L 585 82 L 36 82 Z"/>
    <text id="WINE-CELLAR-INVENTORY-LOG" xml:space="preserve" x="218.412572" y="73" font-family="Playfair Display" font-size="12" font-weight="700" fill="#ffffff">WINE CELLAR INVENTORY LOG</text>
    <path id="path2" fill="#ffffff" stroke="#000000" stroke-width="0.75" d="M 36 84 L 306 84 L 306 106 L 36 106 Z"/>
    <text id="Entry-Date" xml:space="preserve" x="40" y="93" font-family="Playfair Display" font-size="7.5" fill="#555555">Entry Date:</text>
    <path id="path3" fill="#ffffff" stroke="#000000" stroke-width="0.75" d="M 309 84 L 585 84 L 585 106 L 309 106 Z"/>
    <text id="Page--Log-" xml:space="preserve" x="313" y="93" font-family="Playfair Display" font-size="7.5" fill="#555555">Page / Log #:</text>
    <path id="path4" fill="#555555" stroke="#000000" stroke-width="0.5" d="M 36 108 L 146 108 L 146 132 L 36 132 Z"/>
    <text id="Wine-Name" xml:space="preserve" x="73.1395" y="123" font-family="Playfair Display" font-size="7" fill="#ffffff">Wine Name</text>
    <path id="path5" fill="#555555" stroke="#000000" stroke-width="0.5" d="M 146 108 L 236 108 L 236 132 L 146 132 Z"/>
    <text id="Producer--Winery" xml:space="preserve" x="162.3035" y="123" font-family="Playfair Display" font-size="7" fill="#ffffff">Producer / Winery</text>
    <path id="path6" fill="#555555" stroke="#000000" stroke-width="0.5" d="M 236 108 L 281 108 L 281 132 L 236 132 Z"/>
    <text id="Vintage" xml:space="preserve" x="246.212" y="123" font-family="Playfair Display" font-size="7" fill="#ffffff">Vintage</text>
    <path id="path7" fill="#555555" stroke="#000000" stroke-width="0.5" d="M 281 108 L 351 108 L 351 132 L 281 132 Z"/>
    <text id="Varietal--Blend" xml:space="preserve" x="292.3745" y="123" font-family="Playfair Display" font-size="7" fill="#ffffff">Varietal / Blend</text>
    <path id="path8" fill="#555555" stroke="#000000" stroke-width="0.5" d="M 351 108 L 381 108 L 381 132 L 351 132 Z"/>
    <text id="Qty" xml:space="preserve" x="360.4035" y="123" font-family="Playfair Display" font-size="7" fill="#ffffff">Qty</text>
    <path id="path9" fill="#555555" stroke="#000000" stroke-width="0.5" d="M 381 108 L 431 108 L 431 132 L 381 132 Z"/>
    <text id="-Price" xml:space="preserve" x="395.1955" y="123" font-family="Playfair Display" font-size="7" fill="#ffffff">$ Price</text>
    <path id="path10" fill="#555555" stroke="#000000" stroke-width="0.5" d="M 431 108 L 496 108 L 496 132 L 431 132 Z"/>
    <text id="Location" xml:space="preserve" x="449.308" y="123" font-family="Playfair Display" font-size="7" fill="#ffffff">Location</text>
    <path id="path11" fill="#555555" stroke="#000000" stroke-width="0.5" d="M 496 108 L 585 108 L 585 132 L 496 132 Z"/>
    <text id="Notes" xml:space="preserve" x="531.0995" y="123" font-family="Playfair Display" font-size="7" fill="#ffffff">Notes</text>
    <path id="path12" fill="#ffffff" stroke="#000000" stroke-width="0.4" d="M 36 132 L 146 132 L 146 178 L 36 178 Z"/>
    <path id="path13" fill="#ffffff" stroke="#000000" stroke-width="0.4" d="M 146 132 L 236 132 L 236 178 L 146 178 Z"/>
    <path id="path14" fill="#ffffff" stroke="#000000" stroke-width="0.4" d="M 236 132 L 281 132 L 281 178 L 236 178 Z"/>
    <path id="path15" fill="#ffffff" stroke="#000000" stroke-width="0.4" d="M 281 132 L 351 132 L 351 178 L 281 178 Z"/>
    <path id="path16" fill="#ffffff" stroke="#000000" stroke-width="0.4" d="M 351 132 L 381 132 L 381 178 L 351 178 Z"/>
    <path id="path17" fill="#ffffff" stroke="#000000" stroke-width="0.4" d="M 381 132 L 431 132 L 431 178 L 381 178 Z"/>
    <path id="path18" fill="#ffffff" stroke="#000000" stroke-width="0.4" d="M 431 132 L 496 132 L 496 178 L 431 178 Z"/>
    <path id="path19" fill="#ffffff" stroke="#000000" stroke-width="0.4" d="M 496 132 L 585 132 L 585 178 L 496 178 Z"/>
    <path id="path20" fill="#f7f7f7" stroke="#000000" stroke-width="0.4" d="M 36 178 L 146 178 L 146 224 L 36 224 Z"/>
    <path id="path21" fill="#f7f7f7" stroke="#000000" stroke-width="0.4" d="M 146 178 L 236 178 L 236 224 L 146 224 Z"/>
    <path id="path22" fill="#f7f7f7" stroke="#000000" stroke-width="0.4" d="M 236 178 L 281 178 L 281 224 L 236 224 Z"/>
    <path id="path23" fill="#f7f7f7" stroke="#000000" stroke-width="0.4" d="M 281 178 L 351 178 L 351 224 L 281 224 Z"/>
    <path id="path24" fill="#f7f7f7" stroke="#000000" stroke-width="0.4" d="M 351 178 L 381 178 L 381 224 L 351 224 Z"/>
    <path id="path25" fill="#f7f7f7" stroke="#000000" stroke-width="0.4" d="M 381 178 L 431 178 L 431 224 L 381 224 Z"/>
    <path id="path26" fill="#f7f7f7" stroke="#000000" stroke-width="0.4" d="M 431 178 L 496 178 L 496 224 L 431 224 Z"/>
    <path id="path27" fill="#f7f7f7" stroke="#000000" stroke-width="0.4" d="M 496 178 L 585 178 L 585 224 L 496 224 Z"/>
    <path id="path28" fill="#ffffff" stroke="#000000" stroke-width="0.4" d="M 36 224 L 146 224 L 146 270 L 36 270 Z"/>
    <path id="path29" fill="#ffffff" stroke="#000000" stroke-width="0.4" d="M 146 224 L 236 224 L 236 270 L 146 270 Z"/>
    <path id="path30" fill="#ffffff" stroke="#000000" stroke-width="0.4" d="M 236 224 L 281 224 L 281 270 L 236 270 Z"/>
    <path id="path31" fill="#ffffff" stroke="#000000" stroke-width="0.4" d="M 281 224 L 351 224 L 351 270 L 281 270 Z"/>
    <path id="path32" fill="#ffffff" stroke="#000000" stroke-width="0.4" d="M 351 224 L 381 224 L 381 270 L 351 270 Z"/>
    <path id="path33" fill="#ffffff" stroke="#000000" stroke-width="0.4" d="M 381 224 L 431 224 L 431 270 L 381 270 Z"/>
    <path id="path34" fill="#ffffff" stroke="#000000" stroke-width="0.4" d="M 431 224 L 496 224 L 496 270 L 431 270 Z"/>
    <path id="path35" fill="#ffffff" stroke="#000000" stroke-width="0.4" d="M 496 224 L 585 224 L 585 270 L 496 270 Z"/>
    <path id="path36" fill="#f7f7f7" stroke="#000000" stroke-width="0.4" d="M 36 270 L 146 270 L 146 316 L 36 316 Z"/>
    <path id="path37" fill="#f7f7f7" stroke="#000000" stroke-width="0.4" d="M 146 270 L 236 270 L 236 316 L 146 316 Z"/>
    <path id="path38" fill="#f7f7f7" stroke="#000000" stroke-width="0.4" d="M 236 270 L 281 270 L 281 316 L 236 316 Z"/>
    <path id="path39" fill="#f7f7f7" stroke="#000000" stroke-width="0.4" d="M 281 270 L 351 270 L 351 316 L 281 316 Z"/>
    <path id="path40" fill="#f7f7f7" stroke="#000000" stroke-width="0.4" d="M 351 270 L 381 270 L 381 316 L 351 316 Z"/>
    <path id="path41" fill="#f7f7f7" stroke="#000000" stroke-width="0.4" d="M 381 270 L 431 270 L 431 316 L 381 316 Z"/>
    <path id="path42" fill="#f7f7f7" stroke="#000000" stroke-width="0.4" d="M 431 270 L 496 270 L 496 316 L 431 316 Z"/>
    <path id="path43" fill="#f7f7f7" stroke="#000000" stroke-width="0.4" d="M 496 270 L 585 270 L 585 316 L 496 316 Z"/>
    <path id="path44" fill="#ffffff" stroke="#000000" stroke-width="0.4" d="M 36 316 L 146 316 L 146 362 L 36 362 Z"/>
    <path id="path45" fill="#ffffff" stroke="#000000" stroke-width="0.4" d="M 146 316 L 236 316 L 236 362 L 146 362 Z"/>
    <path id="path46" fill="#ffffff" stroke="#000000" stroke-width="0.4" d="M 236 316 L 281 316 L 281 362 L 236 362 Z"/>
    <path id="path47" fill="#ffffff" stroke="#000000" stroke-width="0.4" d="M 281 316 L 351 316 L 351 362 L 281 362 Z"/>
    <path id="path48" fill="#ffffff" stroke="#000000" stroke-width="0.4" d="M 351 316 L 381 316 L 381 362 L 351 362 Z"/>
    <path id="path49" fill="#ffffff" stroke="#000000" stroke-width="0.4" d="M 381 316 L 431 316 L 431 362 L 381 362 Z"/>
    <path id="path50" fill="#ffffff" stroke="#000000" stroke-width="0.4" d="M 431 316 L 496 316 L 496 362 L 431 362 Z"/>
    <path id="path51" fill="#ffffff" stroke="#000000" stroke-width="0.4" d="M 496 316 L 585 316 L 585 362 L 496 362 Z"/>
    <path id="path52" fill="#f7f7f7" stroke="#000000" stroke-width="0.4" d="M 36 362 L 146 362 L 146 408 L 36 408 Z"/>
    <path id="path53" fill="#f7f7f7" stroke="#000000" stroke-width="0.4" d="M 146 362 L 236 362 L 236 408 L 146 408 Z"/>
    <path id="path54" fill="#f7f7f7" stroke="#000000" stroke-width="0.4" d="M 236 362 L 281 362 L 281 408 L 236 408 Z"/>
    <path id="path55" fill="#f7f7f7" stroke="#000000" stroke-width="0.4" d="M 281 362 L 351 362 L 351 408 L 281 408 Z"/>
    <path id="path56" fill="#f7f7f7" stroke="#000000" stroke-width="0.4" d="M 351 362 L 381 362 L 381 408 L 351 408 Z"/>
    <path id="path57" fill="#f7f7f7" stroke="#000000" stroke-width="0.4" d="M 381 362 L 431 362 L 431 408 L 381 408 Z"/>
    <path id="path58" fill="#f7f7f7" stroke="#000000" stroke-width="0.4" d="M 431 362 L 496 362 L 496 408 L 431 408 Z"/>
    <path id="path59" fill="#f7f7f7" stroke="#000000" stroke-width="0.4" d="M 496 362 L 585 362 L 585 408 L 496 408 Z"/>
    <path id="path60" fill="#ffffff" stroke="#000000" stroke-width="0.4" d="M 36 408 L 146 408 L 146 454 L 36 454 Z"/>
    <path id="path61" fill="#ffffff" stroke="#000000" stroke-width="0.4" d="M 146 408 L 236 408 L 236 454 L 146 454 Z"/>
    <path id="path62" fill="#ffffff" stroke="#000000" stroke-width="0.4" d="M 236 408 L 281 408 L 281 454 L 236 454 Z"/>
    <path id="path63" fill="#ffffff" stroke="#000000" stroke-width="0.4" d="M 281 408 L 351 408 L 351 454 L 281 454 Z"/>
    <path id="path64" fill="#ffffff" stroke="#000000" stroke-width="0.4" d="M 351 408 L 381 408 L 381 454 L 351 454 Z"/>
    <path id="path65" fill="#ffffff" stroke="#000000" stroke-width="0.4" d="M 381 408 L 431 408 L 431 454 L 381 454 Z"/>
    <path id="path66" fill="#ffffff" stroke="#000000" stroke-width="0.4" d="M 431 408 L 496 408 L 496 454 L 431 454 Z"/>
    <path id="path67" fill="#ffffff" stroke="#000000" stroke-width="0.4" d="M 496 408 L 585 408 L 585 454 L 496 454 Z"/>
    <path id="path68" fill="#f7f7f7" stroke="#000000" stroke-width="0.4" d="M 36 454 L 146 454 L 146 500 L 36 500 Z"/>
    <path id="path69" fill="#f7f7f7" stroke="#000000" stroke-width="0.4" d="M 146 454 L 236 454 L 236 500 L 146 500 Z"/>
    <path id="path70" fill="#f7f7f7" stroke="#000000" stroke-width="0.4" d="M 236 454 L 281 454 L 281 500 L 236 500 Z"/>
    <path id="path71" fill="#f7f7f7" stroke="#000000" stroke-width="0.4" d="M 281 454 L 351 454 L 351 500 L 281 500 Z"/>
    <path id="path72" fill="#f7f7f7" stroke="#000000" stroke-width="0.4" d="M 351 454 L 381 454 L 381 500 L 351 500 Z"/>
    <path id="path73" fill="#f7f7f7" stroke="#000000" stroke-width="0.4" d="M 381 454 L 431 454 L 431 500 L 381 500 Z"/>
    <path id="path74" fill="#f7f7f7" stroke="#000000" stroke-width="0.4" d="M 431 454 L 496 454 L 496 500 L 431 500 Z"/>
    <path id="path75" fill="#f7f7f7" stroke="#000000" stroke-width="0.4" d="M 496 454 L 585 454 L 585 500 L 496 500 Z"/>
    <path id="path76" fill="#ffffff" stroke="#000000" stroke-width="0.4" d="M 36 500 L 146 500 L 146 546 L 36 546 Z"/>
    <path id="path77" fill="#ffffff" stroke="#000000" stroke-width="0.4" d="M 146 500 L 236 500 L 236 546 L 146 546 Z"/>
    <path id="path78" fill="#ffffff" stroke="#000000" stroke-width="0.4" d="M 236 500 L 281 500 L 281 546 L 236 546 Z"/>
    <path id="path79" fill="#ffffff" stroke="#000000" stroke-width="0.4" d="M 281 500 L 351 500 L 351 546 L 281 546 Z"/>
    <path id="path80" fill="#ffffff" stroke="#000000" stroke-width="0.4" d="M 351 500 L 381 500 L 381 546 L 351 546 Z"/>
    <path id="path81" fill="#ffffff" stroke="#000000" stroke-width="0.4" d="M 381 500 L 431 500 L 431 546 L 381 546 Z"/>
    <path id="path82" fill="#ffffff" stroke="#000000" stroke-width="0.4" d="M 431 500 L 496 500 L 496 546 L 431 546 Z"/>
    <path id="path83" fill="#ffffff" stroke="#000000" stroke-width="0.4" d="M 496 500 L 585 500 L 585 546 L 496 546 Z"/>
    <path id="path84" fill="#f7f7f7" stroke="#000000" stroke-width="0.4" d="M 36 546 L 146 546 L 146 592 L 36 592 Z"/>
    <path id="path85" fill="#f7f7f7" stroke="#000000" stroke-width="0.4" d="M 146 546 L 236 546 L 236 592 L 146 592 Z"/>
    <path id="path86" fill="#f7f7f7" stroke="#000000" stroke-width="0.4" d="M 236 546 L 281 546 L 281 592 L 236 592 Z"/>
    <path id="path87" fill="#f7f7f7" stroke="#000000" stroke-width="0.4" d="M 281 546 L 351 546 L 351 592 L 281 592 Z"/>
    <path id="path88" fill="#f7f7f7" stroke="#000000" stroke-width="0.4" d="M 351 546 L 381 546 L 381 592 L 351 592 Z"/>
    <path id="path89" fill="#f7f7f7" stroke="#000000" stroke-width="0.4" d="M 381 546 L 431 546 L 431 592 L 381 592 Z"/>
    <path id="path90" fill="#f7f7f7" stroke="#000000" stroke-width="0.4" d="M 431 546 L 496 546 L 496 592 L 431 592 Z"/>
    <path id="path91" fill="#f7f7f7" stroke="#000000" stroke-width="0.4" d="M 496 546 L 585 546 L 585 592 L 496 592 Z"/>
    <path id="path92" fill="#ffffff" stroke="#000000" stroke-width="0.4" d="M 36 592 L 146 592 L 146 638 L 36 638 Z"/>
    <path id="path93" fill="#ffffff" stroke="#000000" stroke-width="0.4" d="M 146 592 L 236 592 L 236 638 L 146 638 Z"/>
    <path id="path94" fill="#ffffff" stroke="#000000" stroke-width="0.4" d="M 236 592 L 281 592 L 281 638 L 236 638 Z"/>
    <path id="path95" fill="#ffffff" stroke="#000000" stroke-width="0.4" d="M 281 592 L 351 592 L 351 638 L 281 638 Z"/>
    <path id="path96" fill="#ffffff" stroke="#000000" stroke-width="0.4" d="M 351 592 L 381 592 L 381 638 L 351 638 Z"/>
    <path id="path97" fill="#ffffff" stroke="#000000" stroke-width="0.4" d="M 381 592 L 431 592 L 431 638 L 381 638 Z"/>
    <path id="path98" fill="#ffffff" stroke="#000000" stroke-width="0.4" d="M 431 592 L 496 592 L 496 638 L 431 638 Z"/>
    <path id="path99" fill="#ffffff" stroke="#000000" stroke-width="0.4" d="M 496 592 L 585 592 L 585 638 L 496 638 Z"/>
    <path id="path100" fill="#f7f7f7" stroke="#000000" stroke-width="0.4" d="M 36 638 L 146 638 L 146 684 L 36 684 Z"/>
    <path id="path101" fill="#f7f7f7" stroke="#000000" stroke-width="0.4" d="M 146 638 L 236 638 L 236 684 L 146 684 Z"/>
    <path id="path102" fill="#f7f7f7" stroke="#000000" stroke-width="0.4" d="M 236 638 L 281 638 L 281 684 L 236 684 Z"/>
    <path id="path103" fill="#f7f7f7" stroke="#000000" stroke-width="0.4" d="M 281 638 L 351 638 L 351 684 L 281 684 Z"/>
    <path id="path104" fill="#f7f7f7" stroke="#000000" stroke-width="0.4" d="M 351 638 L 381 638 L 381 684 L 351 684 Z"/>
    <path id="path105" fill="#f7f7f7" stroke="#000000" stroke-width="0.4" d="M 381 638 L 431 638 L 431 684 L 381 684 Z"/>
    <path id="path106" fill="#f7f7f7" stroke="#000000" stroke-width="0.4" d="M 431 638 L 496 638 L 496 684 L 431 684 Z"/>
    <path id="path107" fill="#f7f7f7" stroke="#000000" stroke-width="0.4" d="M 496 638 L 585 638 L 585 684 L 496 684 Z"/>
    <path id="path108" fill="#ffffff" stroke="#000000" stroke-width="0.4" d="M 36 684 L 146 684 L 146 730 L 36 730 Z"/>
    <path id="path109" fill="#ffffff" stroke="#000000" stroke-width="0.4" d="M 146 684 L 236 684 L 236 730 L 146 730 Z"/>
    <path id="path110" fill="#ffffff" stroke="#000000" stroke-width="0.4" d="M 236 684 L 281 684 L 281 730 L 236 730 Z"/>
    <path id="path111" fill="#ffffff" stroke="#000000" stroke-width="0.4" d="M 281 684 L 351 684 L 351 730 L 281 730 Z"/>
    <path id="path112" fill="#ffffff" stroke="#000000" stroke-width="0.4" d="M 351 684 L 381 684 L 381 730 L 351 730 Z"/>
    <path id="path113" fill="#ffffff" stroke="#000000" stroke-width="0.4" d="M 381 684 L 431 684 L 431 730 L 381 730 Z"/>
    <path id="path114" fill="#ffffff" stroke="#000000" stroke-width="0.4" d="M 431 684 L 496 684 L 496 730 L 431 730 Z"/>
    <path id="path115" fill="#ffffff" stroke="#000000" stroke-width="0.4" d="M 496 684 L 585 684 L 585 730 L 496 730 Z"/>
</svg>
