<?xml version="1.0" encoding="UTF-8"?>
<!-- Generated by Pixelmator Pro 3.7.1 -->
<svg width="612" height="792" viewBox="0 0 612 792" xmlns="http://www.w3.org/2000/svg">
    <path id="Path" fill="#ffffff" stroke="none" d="M 0 0 L 612 0 L 612 792 L 0 792 Z"/>
    <path id="path1" fill="#000000" stroke="none" d="M 36 54 L 585 54 L 585 80 L 36 80 Z"/>
    <text id="THE-90-DAY-TASTING-WINE" xml:space="preserve" x="184.4772" y="72" font-family="Playfair Display" font-size="10" font-weight="700" fill="#ffffff">THE 90-DAY TASTING WINE JOURNAL | Tasting Notes</text>
    <path id="path2" fill="#ffffff" stroke="#000000" stroke-width="0.75" d="M 36 82 L 336 82 L 336 108 L 36 108 Z"/>
    <text id="Wine-Name" xml:space="preserve" x="40" y="91" font-family="Playfair Display" font-size="7.5" fill="#555555">Wine Name:</text>
    <path id="path3" fill="#ffffff" stroke="#000000" stroke-width="0.75" d="M 339 82 L 449 82 L 449 108 L 339 108 Z"/>
    <text id="Vintage" xml:space="preserve" x="343" y="91" font-family="Playfair Display" font-size="7.5" fill="#555555">Vintage:</text>
    <path id="path4" fill="#ffffff" stroke="#000000" stroke-width="0.75" d="M 452 82 L 585 82 L 585 108 L 452 108 Z"/>
    <text id="Date-Tasted" xml:space="preserve" x="456" y="91" font-family="Playfair Display" font-size="7.5" fill="#555555">Date Tasted:</text>
    <path id="path5" fill="#ffffff" stroke="#000000" stroke-width="0.75" d="M 36 110 L 266 110 L 266 134 L 36 134 Z"/>
    <text id="Producer--Winery" xml:space="preserve" x="40" y="119" font-family="Playfair Display" font-size="7.5" fill="#555555">Producer / Winery:</text>
    <path id="path6" fill="#ffffff" stroke="#000000" stroke-width="0.75" d="M 269 110 L 449 110 L 449 134 L 269 134 Z"/>
    <text id="Region--Appellation" xml:space="preserve" x="273" y="119" font-family="Playfair Display" font-size="7.5" fill="#555555">Region / Appellation:</text>
    <path id="path7" fill="#ffffff" stroke="#000000" stroke-width="0.75" d="M 452 110 L 585 110 L 585 134 L 452 134 Z"/>
    <text id="Price-" xml:space="preserve" x="456" y="119" font-family="Playfair Display" font-size="7.5" fill="#555555">Price: $</text>
    <path id="path8" fill="#ffffff" stroke="#000000" stroke-width="0.75" d="M 36 136 L 221 136 L 221 160 L 36 160 Z"/>
    <text id="Varietal--Blend" xml:space="preserve" x="40" y="145" font-family="Playfair Display" font-size="7.5" fill="#555555">Varietal / Blend:</text>
    <path id="path9" fill="#ffffff" stroke="#000000" stroke-width="0.75" d="M 224 136 L 354 136 L 354 160 L 224 160 Z"/>
    <text id="Style-RedWhiteRoseSparkling" xml:space="preserve" x="228" y="145" font-family="Playfair Display" font-size="7.5" fill="#555555">Style (Red/White/Rose/Sparkling):</text>
    <path id="path10" fill="#ffffff" stroke="#000000" stroke-width="0.75" d="M 357 136 L 437 136 L 437 160 L 357 160 Z"/>
    <text id="Alcohol-" xml:space="preserve" x="361" y="145" font-family="Playfair Display" font-size="7.5" fill="#555555">Alcohol %:</text>
    <path id="path11" fill="#ffffff" stroke="#000000" stroke-width="0.75" d="M 440 136 L 585 136 L 585 160 L 440 160 Z"/>
    <text id="Country" xml:space="preserve" x="444" y="145" font-family="Playfair Display" font-size="7.5" fill="#555555">Country:</text>
    <path id="path12" fill="#333333" stroke="none" d="M 36 164 L 585 164 L 585 186 L 36 186 Z"/>
    <text id="S-I-G-H" xml:space="preserve" x="285.135029" y="179" font-family="Playfair Display" font-size="10" font-weight="700" fill="#ffffff" letter-spacing="1">S I G H T</text>
    <path id="path13" fill="#ffffff" stroke="#000000" stroke-width="0.75" d="M 36 188 L 211 188 L 211 212 L 36 212 Z"/>
    <text id="Color" xml:space="preserve" x="40" y="197" font-family="Playfair Display" font-size="7.5" fill="#555555">Color:</text>
    <path id="path14" fill="#ffffff" stroke="#000000" stroke-width="0.75" d="M 214 188 L 399 188 L 399 212 L 214 212 Z"/>
    <text id="Depth--Intensity" xml:space="preserve" x="218" y="197" font-family="Playfair Display" font-size="7.5" fill="#555555">Depth / Intensity:</text>
    <path id="path15" fill="#ffffff" stroke="#000000" stroke-width="0.75" d="M 402 188 L 585 188 L 585 212 L 402 212 Z"/>
    <text id="Clarity" xml:space="preserve" x="406" y="197" font-family="Playfair Display" font-size="7.5" fill="#555555">Clarity:</text>
    <path id="path16" fill="#ffffff" stroke="#000000" stroke-width="0.75" d="M 36 214 L 585 214 L 585 256 L 36 256 Z"/>
    <text id="Sight-Observations" xml:space="preserve" x="40" y="223" font-family="Playfair Display" font-size="7.5" fill="#555555">Sight Observations:</text>
    <path id="path17" fill="#000000" stroke="#cccccc" stroke-width="0.4" d="M 40 232 L 581 232"/>
    <path id="path18" fill="#000000" stroke="#cccccc" stroke-width="0.4" d="M 40 245 L 581 245"/>
    <path id="path19" fill="#333333" stroke="none" d="M 36 260 L 585 260 L 585 282 L 36 282 Z"/>
    <text id="N-O-S-E" xml:space="preserve" x="289.341018" y="275" font-family="Playfair Display" font-size="10" font-weight="700" fill="#ffffff" letter-spacing="1">N O S E</text>
    <path id="path20" fill="#ffffff" stroke="#000000" stroke-width="0.75" d="M 36 284 L 301 284 L 301 308 L 36 308 Z"/>
    <text id="Aroma-Intensity-Subtle-" xml:space="preserve" x="40" y="293" font-family="Playfair Display" font-size="7.5" fill="#555555">Aroma Intensity (Subtle / Medium / Pronounced):</text>
    <path id="path21" fill="#ffffff" stroke="#000000" stroke-width="0.75" d="M 304 284 L 585 284 L 585 308 L 304 308 Z"/>
    <text id="Character-Fruity--Earthy" xml:space="preserve" x="308" y="293" font-family="Playfair Display" font-size="7.5" fill="#555555">Character (Fruity / Earthy / Floral / Spicy / Other):</text>
    <path id="path22" fill="#ffffff" stroke="#000000" stroke-width="0.75" d="M 36 310 L 585 310 L 585 366 L 36 366 Z"/>
    <text id="Aromas-Detected" xml:space="preserve" x="40" y="319" font-family="Playfair Display" font-size="7.5" fill="#555555">Aromas Detected:</text>
    <path id="path23" fill="#000000" stroke="#cccccc" stroke-width="0.4" d="M 40 328 L 581 328"/>
    <path id="path24" fill="#000000" stroke="#cccccc" stroke-width="0.4" d="M 40 341 L 581 341"/>
    <path id="path25" fill="#000000" stroke="#cccccc" stroke-width="0.4" d="M 40 354 L 581 354"/>
    <path id="path26" fill="#333333" stroke="none" d="M 36 370 L 585 370 L 585 392 L 36 392 Z"/>
    <text id="P-A-L-A" xml:space="preserve" x="280.059025" y="385" font-family="Playfair Display" font-size="10" font-weight="700" fill="#ffffff" letter-spacing="1">P A L A T E</text>
    <path id="path27" fill="#ffffff" stroke="#000000" stroke-width="0.75" d="M 36 394 L 144 394 L 144 418 L 36 418 Z"/>
    <text id="Body-LMF" xml:space="preserve" x="40" y="403" font-family="Playfair Display" font-size="7.5" fill="#555555">Body (L/M/F):</text>
    <path id="path28" fill="#ffffff" stroke="#000000" stroke-width="0.75" d="M 147 394 L 255 394 L 255 418 L 147 418 Z"/>
    <text id="Tannins-LMH" xml:space="preserve" x="151" y="403" font-family="Playfair Display" font-size="7.5" fill="#555555">Tannins (L/M/H):</text>
    <path id="path29" fill="#ffffff" stroke="#000000" stroke-width="0.75" d="M 258 394 L 366 394 L 366 418 L 258 418 Z"/>
    <text id="Acidity-LMH" xml:space="preserve" x="262" y="403" font-family="Playfair Display" font-size="7.5" fill="#555555">Acidity (L/M/H):</text>
    <path id="path30" fill="#ffffff" stroke="#000000" stroke-width="0.75" d="M 369 394 L 477 394 L 477 418 L 369 418 Z"/>
    <text id="Alcohol-LMH" xml:space="preserve" x="373" y="403" font-family="Playfair Display" font-size="7.5" fill="#555555">Alcohol (L/M/H):</text>
    <path id="path31" fill="#ffffff" stroke="#000000" stroke-width="0.75" d="M 480 394 L 585 394 L 585 418 L 480 418 Z"/>
    <text id="Finish-Length" xml:space="preserve" x="484" y="403" font-family="Playfair Display" font-size="7.5" fill="#555555">Finish Length:</text>
    <path id="path32" fill="#ffffff" stroke="#000000" stroke-width="0.75" d="M 36 420 L 585 420 L 585 476 L 36 476 Z"/>
    <text id="Flavors-Detected" xml:space="preserve" x="40" y="429" font-family="Playfair Display" font-size="7.5" fill="#555555">Flavors Detected:</text>
    <path id="path33" fill="#000000" stroke="#cccccc" stroke-width="0.4" d="M 40 438 L 581 438"/>
    <path id="path34" fill="#000000" stroke="#cccccc" stroke-width="0.4" d="M 40 451 L 581 451"/>
    <path id="path35" fill="#000000" stroke="#cccccc" stroke-width="0.4" d="M 40 464 L 581 464"/>
    <path id="path36" fill="#333333" stroke="none" d="M 36 480 L 585 480 L 585 502 L 36 502 Z"/>
    <text id="C-O-N-C" xml:space="preserve" x="251.490031" y="495" font-family="Playfair Display" font-size="10" font-weight="700" fill="#ffffff" letter-spacing="1">C O N C L U S I O N S</text>
    <path id="path37" fill="#ffffff" stroke="#000000" stroke-width="0.75" d="M 36 504 L 171 504 L 171 530 L 36 530 Z"/>
    <text id="Overall-Rating-1-100" xml:space="preserve" x="40" y="513" font-family="Playfair Display" font-size="7.5" fill="#555555">Overall Rating (1-100):</text>
    <path id="path38" fill="#ffffff" stroke="#000000" stroke-width="0.75" d="M 174 504 L 324 504 L 324 530 L 174 530 Z"/>
    <text id="Quality-Level-EverydayGoodExcellent" xml:space="preserve" x="178" y="513" font-family="Playfair Display" font-size="7.5" fill="#555555">Quality Level (Everyday/Good/Excellent):</text>
    <path id="path39" fill="#ffffff" stroke="#000000" stroke-width="0.75" d="M 327 504 L 585 504 L 585 530 L 327 530 Z"/>
    <text id="Would-Buy-Again" xml:space="preserve" x="331" y="513" font-family="Playfair Display" font-size="7.5" fill="#555555">Would Buy Again?</text>
    <path id="path40" fill="#ffffff" stroke="#000000" stroke-width="0.75" d="M 427 512 L 437 512 L 437 522 L 427 522 Z"/>
    <text id="Yes" xml:space="preserve" x="440" y="522" font-family="Playfair Display" font-size="8" fill="#000000">Yes</text>
    <path id="path41" fill="#ffffff" stroke="#000000" stroke-width="0.75" d="M 466 512 L 476 512 L 476 522 L 466 522 Z"/>
    <text id="No" xml:space="preserve" x="479" y="522" font-family="Playfair Display" font-size="8" fill="#000000">No</text>
    <path id="path42" fill="#ffffff" stroke="#000000" stroke-width="0.75" d="M 36 532 L 585 532 L 585 556 L 36 556 Z"/>
    <text id="Best-Food-Pairing" xml:space="preserve" x="40" y="541" font-family="Playfair Display" font-size="7.5" fill="#555555">Best Food Pairing:</text>
    <path id="path43" fill="#ffffff" stroke="#000000" stroke-width="0.75" d="M 36 558 L 585 558 L 585 658 L 36 658 Z"/>
    <text id="Overall-Impressions" xml:space="preserve" x="40" y="567" font-family="Playfair Display" font-size="7.5" fill="#555555">Overall Impressions:</text>
    <path id="path44" fill="#000000" stroke="#cccccc" stroke-width="0.4" d="M 40 576 L 581 576"/>
    <path id="path45" fill="#000000" stroke="#cccccc" stroke-width="0.4" d="M 40 589 L 581 589"/>
    <path id="path46" fill="#000000" stroke="#cccccc" stroke-width="0.4" d="M 40 602 L 581 602"/>
    <path id="path47" fill="#000000" stroke="#cccccc" stroke-width="0.4" d="M 40 615 L 581 615"/>
    <path id="path48" fill="#000000" stroke="#cccccc" stroke-width="0.4" d="M 40 628 L 581 628"/>
    <path id="path49" fill="#000000" stroke="#cccccc" stroke-width="0.4" d="M 40 641 L 581 641"/>
    <path id="path50" fill="#000000" stroke="#cccccc" stroke-width="0.4" d="M 40 654 L 581 654"/>
    <text id="Favourite-Score" xml:space="preserve" x="37" y="672" font-family="Playfair Display" font-size="8" fill="#555555">Favourite Score:</text>
    <path id="path51" fill="#ffffff" stroke="#000000" stroke-width="0.75" d="M 141 662 L 157 662 L 157 676 L 141 676 Z"/>
    <path id="path52" fill="#ffffff" stroke="#000000" stroke-width="0.75" d="M 161 662 L 177 662 L 177 676 L 161 676 Z"/>
    <path id="path53" fill="#ffffff" stroke="#000000" stroke-width="0.75" d="M 181 662 L 197 662 L 197 676 L 181 676 Z"/>
    <path id="path54" fill="#ffffff" stroke="#000000" stroke-width="0.75" d="M 201 662 L 217 662 L 217 676 L 201 676 Z"/>
    <path id="path55" fill="#ffffff" stroke="#000000" stroke-width="0.75" d="M 221 662 L 237 662 L 237 676 L 221 676 Z"/>
    <text id="-5" xml:space="preserve" x="246" y="672" font-family="Playfair Display" font-size="8" fill="#555555">/ 5</text>
</svg>
