<?xml version="1.0" encoding="UTF-8"?>
<svg xmlns="http://www.w3.org/2000/svg" width="432" height="648" viewBox="0 0 432 648">
  <defs>
    <style>
      @import url('https://fonts.googleapis.com/css2?family=Raleway:wght@400;600;700&amp;display=swap');
    </style>
  </defs>

  <!-- White background -->
  <rect width="432" height="648" fill="#FFFFFF"/>

  <!-- ─── HEADER BAR ─── -->
  <rect x="27" y="54" width="378" height="26" fill="#000000"/>
  <text x="216" y="71" font-family="Raleway,sans-serif" font-size="11" font-weight="700" fill="#FFFFFF" text-anchor="middle" letter-spacing="2.5">TASTING NOTES</text>

  <!-- ─── WINE NAME ─── -->
  <text x="27" y="93" font-family="Raleway,sans-serif" font-size="7" font-weight="600" fill="#000000" letter-spacing="1.5">WINE NAME</text>
  <line x1="27" y1="107" x2="405" y2="107" stroke="#000000" stroke-width="0.75"/>

  <!-- ─── VINTAGE / DATE ROW ─── -->
  <text x="27" y="121" font-family="Raleway,sans-serif" font-size="7" font-weight="600" fill="#000000" letter-spacing="1.5">VINTAGE</text>
  <line x1="27" y1="135" x2="195" y2="135" stroke="#000000" stroke-width="0.75"/>
  <text x="222" y="121" font-family="Raleway,sans-serif" font-size="7" font-weight="600" fill="#000000" letter-spacing="1.5">DATE TASTED</text>
  <line x1="222" y1="135" x2="405" y2="135" stroke="#000000" stroke-width="0.75"/>

  <!-- ─── REGION / GRAPE ROW ─── -->
  <text x="27" y="149" font-family="Raleway,sans-serif" font-size="7" font-weight="600" fill="#000000" letter-spacing="1.5">REGION</text>
  <line x1="27" y1="163" x2="195" y2="163" stroke="#000000" stroke-width="0.75"/>
  <text x="222" y="149" font-family="Raleway,sans-serif" font-size="7" font-weight="600" fill="#000000" letter-spacing="1.5">GRAPE VARIETY</text>
  <line x1="222" y1="163" x2="405" y2="163" stroke="#000000" stroke-width="0.75"/>

  <!-- ─── PRODUCER ─── -->
  <text x="27" y="177" font-family="Raleway,sans-serif" font-size="7" font-weight="600" fill="#000000" letter-spacing="1.5">PRODUCER</text>
  <line x1="27" y1="191" x2="405" y2="191" stroke="#000000" stroke-width="0.75"/>

  <!-- ─── WHO I SHARED THIS WITH ─── -->
  <text x="27" y="205" font-family="Raleway,sans-serif" font-size="7" font-weight="600" fill="#000000" letter-spacing="1.5">WHO I SHARED THIS WITH</text>
  <line x1="27" y1="219" x2="405" y2="219" stroke="#000000" stroke-width="0.75"/>

  <!-- ─── OCCASION / SETTING ─── -->
  <text x="27" y="233" font-family="Raleway,sans-serif" font-size="7" font-weight="600" fill="#000000" letter-spacing="1.5">OCCASION / SETTING</text>
  <line x1="27" y1="247" x2="405" y2="247" stroke="#000000" stroke-width="0.75"/>

  <!-- ─── SENSORY DIVIDER ─── -->
  <line x1="27" y1="257" x2="405" y2="257" stroke="#000000" stroke-width="0.5"/>

  <!-- ─── APPEARANCE ─── -->
  <text x="27" y="269" font-family="Raleway,sans-serif" font-size="7" font-weight="600" fill="#000000" letter-spacing="2">APPEARANCE</text>
  <text x="27" y="283" font-family="Raleway,sans-serif" font-size="7" font-weight="600" fill="#000000" letter-spacing="1.5">COLOR</text>
  <line x1="27" y1="297" x2="195" y2="297" stroke="#000000" stroke-width="0.75"/>
  <text x="222" y="283" font-family="Raleway,sans-serif" font-size="7" font-weight="600" fill="#000000" letter-spacing="1.5">CLARITY</text>
  <line x1="222" y1="297" x2="405" y2="297" stroke="#000000" stroke-width="0.75"/>

  <!-- ─── AROMA ─── -->
  <text x="27" y="311" font-family="Raleway,sans-serif" font-size="7" font-weight="600" fill="#000000" letter-spacing="2">AROMA</text>
  <rect x="27" y="315" width="378" height="50" fill="#FFFFFF" stroke="#000000" stroke-width="0.75"/>
  <line x1="36" y1="332" x2="396" y2="332" stroke="#E0E0E0" stroke-width="0.5"/>
  <line x1="36" y1="349" x2="396" y2="349" stroke="#E0E0E0" stroke-width="0.5"/>

  <!-- ─── PALATE ─── -->
  <line x1="27" y1="375" x2="405" y2="375" stroke="#000000" stroke-width="0.5"/>
  <text x="27" y="387" font-family="Raleway,sans-serif" font-size="7" font-weight="600" fill="#000000" letter-spacing="2">PALATE</text>

  <!-- Scale instructions: 1 = low, 5 = high -->
  <text x="405" y="387" font-family="Raleway,sans-serif" font-size="6" fill="#888888" text-anchor="end">1 = low   5 = high</text>

  <!-- SWEETNESS (left) - row 1 -->
  <text x="27" y="403" font-family="Raleway,sans-serif" font-size="7" font-weight="600" fill="#000000" letter-spacing="1">SWEETNESS</text>
  <rect x="100" y="392" width="16" height="14" fill="#FFFFFF" stroke="#000000" stroke-width="0.75"/>
  <rect x="119" y="392" width="16" height="14" fill="#FFFFFF" stroke="#000000" stroke-width="0.75"/>
  <rect x="138" y="392" width="16" height="14" fill="#FFFFFF" stroke="#000000" stroke-width="0.75"/>
  <rect x="157" y="392" width="16" height="14" fill="#FFFFFF" stroke="#000000" stroke-width="0.75"/>
  <rect x="176" y="392" width="16" height="14" fill="#FFFFFF" stroke="#000000" stroke-width="0.75"/>

  <!-- ACIDITY (right) - row 1 -->
  <text x="222" y="403" font-family="Raleway,sans-serif" font-size="7" font-weight="600" fill="#000000" letter-spacing="1">ACIDITY</text>
  <rect x="280" y="392" width="16" height="14" fill="#FFFFFF" stroke="#000000" stroke-width="0.75"/>
  <rect x="299" y="392" width="16" height="14" fill="#FFFFFF" stroke="#000000" stroke-width="0.75"/>
  <rect x="318" y="392" width="16" height="14" fill="#FFFFFF" stroke="#000000" stroke-width="0.75"/>
  <rect x="337" y="392" width="16" height="14" fill="#FFFFFF" stroke="#000000" stroke-width="0.75"/>
  <rect x="356" y="392" width="16" height="14" fill="#FFFFFF" stroke="#000000" stroke-width="0.75"/>

  <!-- TANNIN (left) - row 2 -->
  <text x="27" y="424" font-family="Raleway,sans-serif" font-size="7" font-weight="600" fill="#000000" letter-spacing="1">TANNIN</text>
  <rect x="100" y="413" width="16" height="14" fill="#FFFFFF" stroke="#000000" stroke-width="0.75"/>
  <rect x="119" y="413" width="16" height="14" fill="#FFFFFF" stroke="#000000" stroke-width="0.75"/>
  <rect x="138" y="413" width="16" height="14" fill="#FFFFFF" stroke="#000000" stroke-width="0.75"/>
  <rect x="157" y="413" width="16" height="14" fill="#FFFFFF" stroke="#000000" stroke-width="0.75"/>
  <rect x="176" y="413" width="16" height="14" fill="#FFFFFF" stroke="#000000" stroke-width="0.75"/>

  <!-- BODY (right) - row 2 -->
  <text x="222" y="424" font-family="Raleway,sans-serif" font-size="7" font-weight="600" fill="#000000" letter-spacing="1">BODY</text>
  <rect x="280" y="413" width="16" height="14" fill="#FFFFFF" stroke="#000000" stroke-width="0.75"/>
  <rect x="299" y="413" width="16" height="14" fill="#FFFFFF" stroke="#000000" stroke-width="0.75"/>
  <rect x="318" y="413" width="16" height="14" fill="#FFFFFF" stroke="#000000" stroke-width="0.75"/>
  <rect x="337" y="413" width="16" height="14" fill="#FFFFFF" stroke="#000000" stroke-width="0.75"/>
  <rect x="356" y="413" width="16" height="14" fill="#FFFFFF" stroke="#000000" stroke-width="0.75"/>

  <!-- ─── FINISH ─── -->
  <text x="27" y="443" font-family="Raleway,sans-serif" font-size="7" font-weight="600" fill="#000000" letter-spacing="1.5">FINISH</text>
  <!-- Short box -->
  <rect x="75" y="432" width="14" height="14" fill="#FFFFFF" stroke="#000000" stroke-width="0.75"/>
  <text x="93" y="443" font-family="Raleway,sans-serif" font-size="7" fill="#000000">SHORT</text>
  <!-- Medium box -->
  <rect x="148" y="432" width="14" height="14" fill="#FFFFFF" stroke="#000000" stroke-width="0.75"/>
  <text x="166" y="443" font-family="Raleway,sans-serif" font-size="7" fill="#000000">MEDIUM</text>
  <!-- Long box -->
  <rect x="228" y="432" width="14" height="14" fill="#FFFFFF" stroke="#000000" stroke-width="0.75"/>
  <text x="246" y="443" font-family="Raleway,sans-serif" font-size="7" fill="#000000">LONG</text>

  <!-- ─── OVERALL DIVIDER ─── -->
  <line x1="27" y1="453" x2="405" y2="453" stroke="#000000" stroke-width="0.5"/>

  <!-- ─── OVERALL RATING ─── -->
  <text x="27" y="467" font-family="Raleway,sans-serif" font-size="7" font-weight="600" fill="#000000" letter-spacing="1.5">OVERALL RATING</text>
  <!-- 5 large rating boxes -->
  <rect x="148" y="456" width="20" height="20" fill="#FFFFFF" stroke="#000000" stroke-width="1"/>
  <rect x="172" y="456" width="20" height="20" fill="#FFFFFF" stroke="#000000" stroke-width="1"/>
  <rect x="196" y="456" width="20" height="20" fill="#FFFFFF" stroke="#000000" stroke-width="1"/>
  <rect x="220" y="456" width="20" height="20" fill="#FFFFFF" stroke="#000000" stroke-width="1"/>
  <rect x="244" y="456" width="20" height="20" fill="#FFFFFF" stroke="#000000" stroke-width="1"/>

  <!-- ─── FINAL NOTES ─── -->
  <text x="27" y="488" font-family="Raleway,sans-serif" font-size="7" font-weight="600" fill="#000000" letter-spacing="1.5">FINAL IMPRESSION</text>
  <rect x="27" y="492" width="378" height="88" fill="#FFFFFF" stroke="#000000" stroke-width="0.75"/>
  <line x1="36" y1="509" x2="396" y2="509" stroke="#E0E0E0" stroke-width="0.5"/>
  <line x1="36" y1="526" x2="396" y2="526" stroke="#E0E0E0" stroke-width="0.5"/>
  <line x1="36" y1="543" x2="396" y2="543" stroke="#E0E0E0" stroke-width="0.5"/>
  <line x1="36" y1="560" x2="396" y2="560" stroke="#E0E0E0" stroke-width="0.5"/>

  <!-- ─── PAGE NUMBER ─── -->
  <text x="216" y="590" font-family="Raleway,sans-serif" font-size="9" fill="#000000" text-anchor="middle">- 1 -</text>
</svg>
