<?xml version="1.0" encoding="UTF-8"?>
<svg xmlns="http://www.w3.org/2000/svg" width="612" height="792" viewBox="0 0 612 792">
  <rect width="612" height="792" fill="#FFFFFF"/>
  <rect x="36" y="54" width="549" height="28" fill="#000000"/>
  <text x="310" y="73" font-family="Playfair Display,sans-serif" font-size="12" font-weight="bold" fill="#FFFFFF" text-anchor="middle">VINTAGE COMPARISON CHART</text>
  <rect x="36" y="84" width="330" height="24" fill="#FFFFFF" stroke="#000000" stroke-width="0.75"/>
  <text x="39" y="93" font-family="Playfair Display,sans-serif" font-size="7.5" fill="#555555">Wine Name:</text>
  <rect x="369" y="84" width="216" height="24" fill="#FFFFFF" stroke="#000000" stroke-width="0.75"/>
  <text x="372" y="93" font-family="Playfair Display,sans-serif" font-size="7.5" fill="#555555">Producer / Winery:</text>
  <rect x="36" y="110" width="270" height="24" fill="#FFFFFF" stroke="#000000" stroke-width="0.75"/>
  <text x="39" y="119" font-family="Playfair Display,sans-serif" font-size="7.5" fill="#555555">Region / Appellation:</text>
  <rect x="309" y="110" width="276" height="24" fill="#FFFFFF" stroke="#000000" stroke-width="0.75"/>
  <text x="312" y="119" font-family="Playfair Display,sans-serif" font-size="7.5" fill="#555555">Grape Varietal:</text>
  <rect x="36" y="138" width="45" height="26" fill="#555555" stroke="#000000" stroke-width="0.5"/>
  <text x="58" y="154" font-family="Playfair Display,sans-serif" font-size="6.5" fill="#FFFFFF" text-anchor="middle">Vintage</text>
  <rect x="81" y="138" width="42" height="26" fill="#555555" stroke="#000000" stroke-width="0.5"/>
  <text x="102" y="154" font-family="Playfair Display,sans-serif" font-size="6.5" fill="#FFFFFF" text-anchor="middle">Rating//100</text>
  <rect x="123" y="138" width="60" height="26" fill="#555555" stroke="#000000" stroke-width="0.5"/>
  <text x="153" y="154" font-family="Playfair Display,sans-serif" font-size="6.5" fill="#FFFFFF" text-anchor="middle">Color</text>
  <rect x="183" y="138" width="60" height="26" fill="#555555" stroke="#000000" stroke-width="0.5"/>
  <text x="213" y="154" font-family="Playfair Display,sans-serif" font-size="6.5" fill="#FFFFFF" text-anchor="middle">Clarity</text>
  <rect x="243" y="138" width="90" height="26" fill="#555555" stroke="#000000" stroke-width="0.5"/>
  <text x="288" y="154" font-family="Playfair Display,sans-serif" font-size="6.5" fill="#FFFFFF" text-anchor="middle">Aromas</text>
  <rect x="333" y="138" width="45" height="26" fill="#555555" stroke="#000000" stroke-width="0.5"/>
  <text x="355" y="154" font-family="Playfair Display,sans-serif" font-size="6.5" fill="#FFFFFF" text-anchor="middle">Body</text>
  <rect x="378" y="138" width="50" height="26" fill="#555555" stroke="#000000" stroke-width="0.5"/>
  <text x="403" y="154" font-family="Playfair Display,sans-serif" font-size="6.5" fill="#FFFFFF" text-anchor="middle">Tannins</text>
  <rect x="428" y="138" width="48" height="26" fill="#555555" stroke="#000000" stroke-width="0.5"/>
  <text x="452" y="154" font-family="Playfair Display,sans-serif" font-size="6.5" fill="#FFFFFF" text-anchor="middle">Acidity</text>
  <rect x="476" y="138" width="55" height="26" fill="#555555" stroke="#000000" stroke-width="0.5"/>
  <text x="503" y="154" font-family="Playfair Display,sans-serif" font-size="6.5" fill="#FFFFFF" text-anchor="middle">Finish</text>
  <rect x="531" y="138" width="54" height="26" fill="#555555" stroke="#000000" stroke-width="0.5"/>
  <text x="558" y="154" font-family="Playfair Display,sans-serif" font-size="6.5" fill="#FFFFFF" text-anchor="middle">Notes</text>
  <rect x="36" y="164" width="45" height="52" fill="#FFFFFF" stroke="#000000" stroke-width="0.4"/>
  <rect x="81" y="164" width="42" height="52" fill="#FFFFFF" stroke="#000000" stroke-width="0.4"/>
  <rect x="123" y="164" width="60" height="52" fill="#FFFFFF" stroke="#000000" stroke-width="0.4"/>
  <rect x="183" y="164" width="60" height="52" fill="#FFFFFF" stroke="#000000" stroke-width="0.4"/>
  <rect x="243" y="164" width="90" height="52" fill="#FFFFFF" stroke="#000000" stroke-width="0.4"/>
  <rect x="333" y="164" width="45" height="52" fill="#FFFFFF" stroke="#000000" stroke-width="0.4"/>
  <rect x="378" y="164" width="50" height="52" fill="#FFFFFF" stroke="#000000" stroke-width="0.4"/>
  <rect x="428" y="164" width="48" height="52" fill="#FFFFFF" stroke="#000000" stroke-width="0.4"/>
  <rect x="476" y="164" width="55" height="52" fill="#FFFFFF" stroke="#000000" stroke-width="0.4"/>
  <rect x="531" y="164" width="54" height="52" fill="#FFFFFF" stroke="#000000" stroke-width="0.4"/>
  <rect x="36" y="216" width="45" height="52" fill="#F7F7F7" stroke="#000000" stroke-width="0.4"/>
  <rect x="81" y="216" width="42" height="52" fill="#F7F7F7" stroke="#000000" stroke-width="0.4"/>
  <rect x="123" y="216" width="60" height="52" fill="#F7F7F7" stroke="#000000" stroke-width="0.4"/>
  <rect x="183" y="216" width="60" height="52" fill="#F7F7F7" stroke="#000000" stroke-width="0.4"/>
  <rect x="243" y="216" width="90" height="52" fill="#F7F7F7" stroke="#000000" stroke-width="0.4"/>
  <rect x="333" y="216" width="45" height="52" fill="#F7F7F7" stroke="#000000" stroke-width="0.4"/>
  <rect x="378" y="216" width="50" height="52" fill="#F7F7F7" stroke="#000000" stroke-width="0.4"/>
  <rect x="428" y="216" width="48" height="52" fill="#F7F7F7" stroke="#000000" stroke-width="0.4"/>
  <rect x="476" y="216" width="55" height="52" fill="#F7F7F7" stroke="#000000" stroke-width="0.4"/>
  <rect x="531" y="216" width="54" height="52" fill="#F7F7F7" stroke="#000000" stroke-width="0.4"/>
  <rect x="36" y="268" width="45" height="52" fill="#FFFFFF" stroke="#000000" stroke-width="0.4"/>
  <rect x="81" y="268" width="42" height="52" fill="#FFFFFF" stroke="#000000" stroke-width="0.4"/>
  <rect x="123" y="268" width="60" height="52" fill="#FFFFFF" stroke="#000000" stroke-width="0.4"/>
  <rect x="183" y="268" width="60" height="52" fill="#FFFFFF" stroke="#000000" stroke-width="0.4"/>
  <rect x="243" y="268" width="90" height="52" fill="#FFFFFF" stroke="#000000" stroke-width="0.4"/>
  <rect x="333" y="268" width="45" height="52" fill="#FFFFFF" stroke="#000000" stroke-width="0.4"/>
  <rect x="378" y="268" width="50" height="52" fill="#FFFFFF" stroke="#000000" stroke-width="0.4"/>
  <rect x="428" y="268" width="48" height="52" fill="#FFFFFF" stroke="#000000" stroke-width="0.4"/>
  <rect x="476" y="268" width="55" height="52" fill="#FFFFFF" stroke="#000000" stroke-width="0.4"/>
  <rect x="531" y="268" width="54" height="52" fill="#FFFFFF" stroke="#000000" stroke-width="0.4"/>
  <rect x="36" y="320" width="45" height="52" fill="#F7F7F7" stroke="#000000" stroke-width="0.4"/>
  <rect x="81" y="320" width="42" height="52" fill="#F7F7F7" stroke="#000000" stroke-width="0.4"/>
  <rect x="123" y="320" width="60" height="52" fill="#F7F7F7" stroke="#000000" stroke-width="0.4"/>
  <rect x="183" y="320" width="60" height="52" fill="#F7F7F7" stroke="#000000" stroke-width="0.4"/>
  <rect x="243" y="320" width="90" height="52" fill="#F7F7F7" stroke="#000000" stroke-width="0.4"/>
  <rect x="333" y="320" width="45" height="52" fill="#F7F7F7" stroke="#000000" stroke-width="0.4"/>
  <rect x="378" y="320" width="50" height="52" fill="#F7F7F7" stroke="#000000" stroke-width="0.4"/>
  <rect x="428" y="320" width="48" height="52" fill="#F7F7F7" stroke="#000000" stroke-width="0.4"/>
  <rect x="476" y="320" width="55" height="52" fill="#F7F7F7" stroke="#000000" stroke-width="0.4"/>
  <rect x="531" y="320" width="54" height="52" fill="#F7F7F7" stroke="#000000" stroke-width="0.4"/>
  <rect x="36" y="372" width="45" height="52" fill="#FFFFFF" stroke="#000000" stroke-width="0.4"/>
  <rect x="81" y="372" width="42" height="52" fill="#FFFFFF" stroke="#000000" stroke-width="0.4"/>
  <rect x="123" y="372" width="60" height="52" fill="#FFFFFF" stroke="#000000" stroke-width="0.4"/>
  <rect x="183" y="372" width="60" height="52" fill="#FFFFFF" stroke="#000000" stroke-width="0.4"/>
  <rect x="243" y="372" width="90" height="52" fill="#FFFFFF" stroke="#000000" stroke-width="0.4"/>
  <rect x="333" y="372" width="45" height="52" fill="#FFFFFF" stroke="#000000" stroke-width="0.4"/>
  <rect x="378" y="372" width="50" height="52" fill="#FFFFFF" stroke="#000000" stroke-width="0.4"/>
  <rect x="428" y="372" width="48" height="52" fill="#FFFFFF" stroke="#000000" stroke-width="0.4"/>
  <rect x="476" y="372" width="55" height="52" fill="#FFFFFF" stroke="#000000" stroke-width="0.4"/>
  <rect x="531" y="372" width="54" height="52" fill="#FFFFFF" stroke="#000000" stroke-width="0.4"/>
  <rect x="36" y="424" width="45" height="52" fill="#F7F7F7" stroke="#000000" stroke-width="0.4"/>
  <rect x="81" y="424" width="42" height="52" fill="#F7F7F7" stroke="#000000" stroke-width="0.4"/>
  <rect x="123" y="424" width="60" height="52" fill="#F7F7F7" stroke="#000000" stroke-width="0.4"/>
  <rect x="183" y="424" width="60" height="52" fill="#F7F7F7" stroke="#000000" stroke-width="0.4"/>
  <rect x="243" y="424" width="90" height="52" fill="#F7F7F7" stroke="#000000" stroke-width="0.4"/>
  <rect x="333" y="424" width="45" height="52" fill="#F7F7F7" stroke="#000000" stroke-width="0.4"/>
  <rect x="378" y="424" width="50" height="52" fill="#F7F7F7" stroke="#000000" stroke-width="0.4"/>
  <rect x="428" y="424" width="48" height="52" fill="#F7F7F7" stroke="#000000" stroke-width="0.4"/>
  <rect x="476" y="424" width="55" height="52" fill="#F7F7F7" stroke="#000000" stroke-width="0.4"/>
  <rect x="531" y="424" width="54" height="52" fill="#F7F7F7" stroke="#000000" stroke-width="0.4"/>
  <rect x="36" y="476" width="45" height="52" fill="#FFFFFF" stroke="#000000" stroke-width="0.4"/>
  <rect x="81" y="476" width="42" height="52" fill="#FFFFFF" stroke="#000000" stroke-width="0.4"/>
  <rect x="123" y="476" width="60" height="52" fill="#FFFFFF" stroke="#000000" stroke-width="0.4"/>
  <rect x="183" y="476" width="60" height="52" fill="#FFFFFF" stroke="#000000" stroke-width="0.4"/>
  <rect x="243" y="476" width="90" height="52" fill="#FFFFFF" stroke="#000000" stroke-width="0.4"/>
  <rect x="333" y="476" width="45" height="52" fill="#FFFFFF" stroke="#000000" stroke-width="0.4"/>
  <rect x="378" y="476" width="50" height="52" fill="#FFFFFF" stroke="#000000" stroke-width="0.4"/>
  <rect x="428" y="476" width="48" height="52" fill="#FFFFFF" stroke="#000000" stroke-width="0.4"/>
  <rect x="476" y="476" width="55" height="52" fill="#FFFFFF" stroke="#000000" stroke-width="0.4"/>
  <rect x="531" y="476" width="54" height="52" fill="#FFFFFF" stroke="#000000" stroke-width="0.4"/>
  <rect x="36" y="528" width="45" height="52" fill="#F7F7F7" stroke="#000000" stroke-width="0.4"/>
  <rect x="81" y="528" width="42" height="52" fill="#F7F7F7" stroke="#000000" stroke-width="0.4"/>
  <rect x="123" y="528" width="60" height="52" fill="#F7F7F7" stroke="#000000" stroke-width="0.4"/>
  <rect x="183" y="528" width="60" height="52" fill="#F7F7F7" stroke="#000000" stroke-width="0.4"/>
  <rect x="243" y="528" width="90" height="52" fill="#F7F7F7" stroke="#000000" stroke-width="0.4"/>
  <rect x="333" y="528" width="45" height="52" fill="#F7F7F7" stroke="#000000" stroke-width="0.4"/>
  <rect x="378" y="528" width="50" height="52" fill="#F7F7F7" stroke="#000000" stroke-width="0.4"/>
  <rect x="428" y="528" width="48" height="52" fill="#F7F7F7" stroke="#000000" stroke-width="0.4"/>
  <rect x="476" y="528" width="55" height="52" fill="#F7F7F7" stroke="#000000" stroke-width="0.4"/>
  <rect x="531" y="528" width="54" height="52" fill="#F7F7F7" stroke="#000000" stroke-width="0.4"/>
  <rect x="36" y="580" width="45" height="52" fill="#FFFFFF" stroke="#000000" stroke-width="0.4"/>
  <rect x="81" y="580" width="42" height="52" fill="#FFFFFF" stroke="#000000" stroke-width="0.4"/>
  <rect x="123" y="580" width="60" height="52" fill="#FFFFFF" stroke="#000000" stroke-width="0.4"/>
  <rect x="183" y="580" width="60" height="52" fill="#FFFFFF" stroke="#000000" stroke-width="0.4"/>
  <rect x="243" y="580" width="90" height="52" fill="#FFFFFF" stroke="#000000" stroke-width="0.4"/>
  <rect x="333" y="580" width="45" height="52" fill="#FFFFFF" stroke="#000000" stroke-width="0.4"/>
  <rect x="378" y="580" width="50" height="52" fill="#FFFFFF" stroke="#000000" stroke-width="0.4"/>
  <rect x="428" y="580" width="48" height="52" fill="#FFFFFF" stroke="#000000" stroke-width="0.4"/>
  <rect x="476" y="580" width="55" height="52" fill="#FFFFFF" stroke="#000000" stroke-width="0.4"/>
  <rect x="531" y="580" width="54" height="52" fill="#FFFFFF" stroke="#000000" stroke-width="0.4"/>
  <rect x="36" y="632" width="45" height="52" fill="#F7F7F7" stroke="#000000" stroke-width="0.4"/>
  <rect x="81" y="632" width="42" height="52" fill="#F7F7F7" stroke="#000000" stroke-width="0.4"/>
  <rect x="123" y="632" width="60" height="52" fill="#F7F7F7" stroke="#000000" stroke-width="0.4"/>
  <rect x="183" y="632" width="60" height="52" fill="#F7F7F7" stroke="#000000" stroke-width="0.4"/>
  <rect x="243" y="632" width="90" height="52" fill="#F7F7F7" stroke="#000000" stroke-width="0.4"/>
  <rect x="333" y="632" width="45" height="52" fill="#F7F7F7" stroke="#000000" stroke-width="0.4"/>
  <rect x="378" y="632" width="50" height="52" fill="#F7F7F7" stroke="#000000" stroke-width="0.4"/>
  <rect x="428" y="632" width="48" height="52" fill="#F7F7F7" stroke="#000000" stroke-width="0.4"/>
  <rect x="476" y="632" width="55" height="52" fill="#F7F7F7" stroke="#000000" stroke-width="0.4"/>
  <rect x="531" y="632" width="54" height="52" fill="#F7F7F7" stroke="#000000" stroke-width="0.4"/>
  <rect x="36" y="684" width="45" height="52" fill="#FFFFFF" stroke="#000000" stroke-width="0.4"/>
  <rect x="81" y="684" width="42" height="52" fill="#FFFFFF" stroke="#000000" stroke-width="0.4"/>
  <rect x="123" y="684" width="60" height="52" fill="#FFFFFF" stroke="#000000" stroke-width="0.4"/>
  <rect x="183" y="684" width="60" height="52" fill="#FFFFFF" stroke="#000000" stroke-width="0.4"/>
  <rect x="243" y="684" width="90" height="52" fill="#FFFFFF" stroke="#000000" stroke-width="0.4"/>
  <rect x="333" y="684" width="45" height="52" fill="#FFFFFF" stroke="#000000" stroke-width="0.4"/>
  <rect x="378" y="684" width="50" height="52" fill="#FFFFFF" stroke="#000000" stroke-width="0.4"/>
  <rect x="428" y="684" width="48" height="52" fill="#FFFFFF" stroke="#000000" stroke-width="0.4"/>
  <rect x="476" y="684" width="55" height="52" fill="#FFFFFF" stroke="#000000" stroke-width="0.4"/>
  <rect x="531" y="684" width="54" height="52" fill="#FFFFFF" stroke="#000000" stroke-width="0.4"/>
  <text x="306" y="735" font-family="Playfair Display,sans-serif" font-size="8" fill="#888888" text-anchor="middle">- Page ___ -</text>
</svg>
