<?xml version="1.0" encoding="UTF-8"?>
<svg xmlns="http://www.w3.org/2000/svg" width="432" height="648" viewBox="0 0 432 648">

  <!-- White background -->
  <rect width="432" height="648" fill="#FFFFFF"/>

  <!-- REGIONAL GRAPE VARIETY INDEX header bar -->
  <rect x="27" y="58" width="378" height="22" fill="#000000"/>
  <text x="216" y="74" text-anchor="middle" font-family="Merriweather,sans-serif" font-size="12" font-weight="bold" fill="#FFFFFF">REGIONAL GRAPE VARIETY INDEX</text>

  <!-- Region / Appellation field -->
  <text x="27" y="92" font-family="Merriweather,sans-serif" font-size="8" fill="#333333">REGION / APPELLATION</text>
  <line x1="27" y1="100" x2="405" y2="100" stroke="#000000" stroke-width="0.75"/>

  <!-- Table column widths: Grape Variety=130 | Color=44 | Key Flavors=90 | Rating=46 | My Notes=68 -->
  <!-- Table starts at y=110 -->

  <!-- Table header row background -->
  <rect x="27" y="110" width="378" height="20" fill="#333333"/>

  <!-- Table header column dividers (vertical lines within header) -->
  <line x1="157" y1="110" x2="157" y2="130" stroke="#FFFFFF" stroke-width="0.5"/>
  <line x1="201" y1="110" x2="201" y2="130" stroke="#FFFFFF" stroke-width="0.5"/>
  <line x1="291" y1="110" x2="291" y2="130" stroke="#FFFFFF" stroke-width="0.5"/>
  <line x1="337" y1="110" x2="337" y2="130" stroke="#FFFFFF" stroke-width="0.5"/>

  <!-- Table header text -->
  <text x="92" y="124" text-anchor="middle" font-family="Merriweather,sans-serif" font-size="8" fill="#FFFFFF">GRAPE VARIETY</text>
  <text x="179" y="124" text-anchor="middle" font-family="Merriweather,sans-serif" font-size="8" fill="#FFFFFF">COLOR</text>
  <text x="246" y="124" text-anchor="middle" font-family="Merriweather,sans-serif" font-size="8" fill="#FFFFFF">KEY FLAVORS</text>
  <text x="314" y="124" text-anchor="middle" font-family="Merriweather,sans-serif" font-size="8" fill="#FFFFFF">RATING</text>
  <text x="371" y="124" text-anchor="middle" font-family="Merriweather,sans-serif" font-size="8" fill="#FFFFFF">MY NOTES</text>

  <!-- Table rows (18 rows, 22px each, starting y=130) -->
  <!-- Row borders and content area lines -->
  <!-- Outer table border -->
  <rect x="27" y="110" width="378" height="416" fill="none" stroke="#000000" stroke-width="0.75"/>

  <!-- Vertical column dividers (full height) -->
  <line x1="157" y1="130" x2="157" y2="526" stroke="#000000" stroke-width="0.5"/>
  <line x1="201" y1="130" x2="201" y2="526" stroke="#000000" stroke-width="0.5"/>
  <line x1="291" y1="130" x2="291" y2="526" stroke="#000000" stroke-width="0.5"/>
  <line x1="337" y1="130" x2="337" y2="526" stroke="#000000" stroke-width="0.5"/>

  <!-- Horizontal row dividers (18 rows) -->
  <line x1="27" y1="152" x2="405" y2="152" stroke="#000000" stroke-width="0.5"/>
  <line x1="27" y1="174" x2="405" y2="174" stroke="#000000" stroke-width="0.5"/>
  <line x1="27" y1="196" x2="405" y2="196" stroke="#000000" stroke-width="0.5"/>
  <line x1="27" y1="218" x2="405" y2="218" stroke="#000000" stroke-width="0.5"/>
  <line x1="27" y1="240" x2="405" y2="240" stroke="#000000" stroke-width="0.5"/>
  <line x1="27" y1="262" x2="405" y2="262" stroke="#000000" stroke-width="0.5"/>
  <line x1="27" y1="284" x2="405" y2="284" stroke="#000000" stroke-width="0.5"/>
  <line x1="27" y1="306" x2="405" y2="306" stroke="#000000" stroke-width="0.5"/>
  <line x1="27" y1="328" x2="405" y2="328" stroke="#000000" stroke-width="0.5"/>
  <line x1="27" y1="350" x2="405" y2="350" stroke="#000000" stroke-width="0.5"/>
  <line x1="27" y1="372" x2="405" y2="372" stroke="#000000" stroke-width="0.5"/>
  <line x1="27" y1="394" x2="405" y2="394" stroke="#000000" stroke-width="0.5"/>
  <line x1="27" y1="416" x2="405" y2="416" stroke="#000000" stroke-width="0.5"/>
  <line x1="27" y1="438" x2="405" y2="438" stroke="#000000" stroke-width="0.5"/>
  <line x1="27" y1="460" x2="405" y2="460" stroke="#000000" stroke-width="0.5"/>
  <line x1="27" y1="482" x2="405" y2="482" stroke="#000000" stroke-width="0.5"/>
  <line x1="27" y1="504" x2="405" y2="504" stroke="#000000" stroke-width="0.5"/>

  <!-- Page number placeholder -->
  <text x="216" y="582" text-anchor="middle" font-family="Merriweather,sans-serif" font-size="9" fill="#333333">#</text>

</svg>
