<svg xmlns="http://www.w3.org/2000/svg" width="360" height="576" viewBox="0 0 360 576">
  <defs>
    <style>
      @import url('https://fonts.googleapis.com/css2?family=Merriweather:wght@400;700&amp;display=swap');
    </style>
  </defs>

  <!-- Page background -->
  <rect width="360" height="576" fill="#FFFFFF"/>

  <!-- Header bar -->
  <rect x="27" y="54" width="306" height="22" fill="#000000"/>
  <text x="180" y="69" font-family="Merriweather,sans-serif" font-size="11" font-weight="700" fill="#FFFFFF" text-anchor="middle">BUSINESS CONTACT DIRECTORY</text>

  <!-- CONTACT 1 -->
  <rect x="27" y="82" width="306" height="12" fill="#333333"/>
  <text x="180" y="91" font-family="Merriweather,sans-serif" font-size="7" font-weight="700" fill="#FFFFFF" text-anchor="middle">CONTACT 1</text>

  <text x="27" y="103" font-family="Merriweather,sans-serif" font-size="6.5" font-weight="700" fill="#000000">NAME</text>
  <rect x="27" y="106" width="175" height="13" fill="#FFFFFF" stroke="#000000" stroke-width="0.5"/>
  <text x="208" y="103" font-family="Merriweather,sans-serif" font-size="6.5" font-weight="700" fill="#000000">TITLE / ROLE</text>
  <rect x="208" y="106" width="125" height="13" fill="#FFFFFF" stroke="#000000" stroke-width="0.5"/>

  <text x="27" y="123" font-family="Merriweather,sans-serif" font-size="6.5" font-weight="700" fill="#000000">WINERY / COMPANY</text>
  <rect x="27" y="126" width="306" height="13" fill="#FFFFFF" stroke="#000000" stroke-width="0.5"/>

  <text x="27" y="143" font-family="Merriweather,sans-serif" font-size="6.5" font-weight="700" fill="#000000">PHONE</text>
  <rect x="27" y="146" width="130" height="13" fill="#FFFFFF" stroke="#000000" stroke-width="0.5"/>
  <text x="163" y="143" font-family="Merriweather,sans-serif" font-size="6.5" font-weight="700" fill="#000000">EMAIL</text>
  <rect x="163" y="146" width="170" height="13" fill="#FFFFFF" stroke="#000000" stroke-width="0.5"/>

  <text x="27" y="163" font-family="Merriweather,sans-serif" font-size="6.5" font-weight="700" fill="#000000">WEBSITE</text>
  <rect x="27" y="166" width="180" height="13" fill="#FFFFFF" stroke="#000000" stroke-width="0.5"/>
  <text x="213" y="163" font-family="Merriweather,sans-serif" font-size="6.5" font-weight="700" fill="#000000">REGION</text>
  <rect x="213" y="166" width="120" height="13" fill="#FFFFFF" stroke="#000000" stroke-width="0.5"/>

  <text x="27" y="183" font-family="Merriweather,sans-serif" font-size="6.5" font-weight="700" fill="#000000">NOTES</text>
  <rect x="27" y="186" width="306" height="13" fill="#FFFFFF" stroke="#000000" stroke-width="0.5"/>

  <!-- CONTACT 2 -->
  <rect x="27" y="204" width="306" height="12" fill="#333333"/>
  <text x="180" y="213" font-family="Merriweather,sans-serif" font-size="7" font-weight="700" fill="#FFFFFF" text-anchor="middle">CONTACT 2</text>

  <text x="27" y="225" font-family="Merriweather,sans-serif" font-size="6.5" font-weight="700" fill="#000000">NAME</text>
  <rect x="27" y="228" width="175" height="13" fill="#FFFFFF" stroke="#000000" stroke-width="0.5"/>
  <text x="208" y="225" font-family="Merriweather,sans-serif" font-size="6.5" font-weight="700" fill="#000000">TITLE / ROLE</text>
  <rect x="208" y="228" width="125" height="13" fill="#FFFFFF" stroke="#000000" stroke-width="0.5"/>

  <text x="27" y="245" font-family="Merriweather,sans-serif" font-size="6.5" font-weight="700" fill="#000000">WINERY / COMPANY</text>
  <rect x="27" y="248" width="306" height="13" fill="#FFFFFF" stroke="#000000" stroke-width="0.5"/>

  <text x="27" y="265" font-family="Merriweather,sans-serif" font-size="6.5" font-weight="700" fill="#000000">PHONE</text>
  <rect x="27" y="268" width="130" height="13" fill="#FFFFFF" stroke="#000000" stroke-width="0.5"/>
  <text x="163" y="265" font-family="Merriweather,sans-serif" font-size="6.5" font-weight="700" fill="#000000">EMAIL</text>
  <rect x="163" y="268" width="170" height="13" fill="#FFFFFF" stroke="#000000" stroke-width="0.5"/>

  <text x="27" y="285" font-family="Merriweather,sans-serif" font-size="6.5" font-weight="700" fill="#000000">WEBSITE</text>
  <rect x="27" y="288" width="180" height="13" fill="#FFFFFF" stroke="#000000" stroke-width="0.5"/>
  <text x="213" y="285" font-family="Merriweather,sans-serif" font-size="6.5" font-weight="700" fill="#000000">REGION</text>
  <rect x="213" y="288" width="120" height="13" fill="#FFFFFF" stroke="#000000" stroke-width="0.5"/>

  <text x="27" y="305" font-family="Merriweather,sans-serif" font-size="6.5" font-weight="700" fill="#000000">NOTES</text>
  <rect x="27" y="308" width="306" height="13" fill="#FFFFFF" stroke="#000000" stroke-width="0.5"/>

  <!-- CONTACT 3 -->
  <rect x="27" y="326" width="306" height="12" fill="#333333"/>
  <text x="180" y="335" font-family="Merriweather,sans-serif" font-size="7" font-weight="700" fill="#FFFFFF" text-anchor="middle">CONTACT 3</text>

  <text x="27" y="347" font-family="Merriweather,sans-serif" font-size="6.5" font-weight="700" fill="#000000">NAME</text>
  <rect x="27" y="350" width="175" height="13" fill="#FFFFFF" stroke="#000000" stroke-width="0.5"/>
  <text x="208" y="347" font-family="Merriweather,sans-serif" font-size="6.5" font-weight="700" fill="#000000">TITLE / ROLE</text>
  <rect x="208" y="350" width="125" height="13" fill="#FFFFFF" stroke="#000000" stroke-width="0.5"/>

  <text x="27" y="367" font-family="Merriweather,sans-serif" font-size="6.5" font-weight="700" fill="#000000">WINERY / COMPANY</text>
  <rect x="27" y="370" width="306" height="13" fill="#FFFFFF" stroke="#000000" stroke-width="0.5"/>

  <text x="27" y="387" font-family="Merriweather,sans-serif" font-size="6.5" font-weight="700" fill="#000000">PHONE</text>
  <rect x="27" y="390" width="130" height="13" fill="#FFFFFF" stroke="#000000" stroke-width="0.5"/>
  <text x="163" y="387" font-family="Merriweather,sans-serif" font-size="6.5" font-weight="700" fill="#000000">EMAIL</text>
  <rect x="163" y="390" width="170" height="13" fill="#FFFFFF" stroke="#000000" stroke-width="0.5"/>

  <text x="27" y="407" font-family="Merriweather,sans-serif" font-size="6.5" font-weight="700" fill="#000000">WEBSITE</text>
  <rect x="27" y="410" width="180" height="13" fill="#FFFFFF" stroke="#000000" stroke-width="0.5"/>
  <text x="213" y="407" font-family="Merriweather,sans-serif" font-size="6.5" font-weight="700" fill="#000000">REGION</text>
  <rect x="213" y="410" width="120" height="13" fill="#FFFFFF" stroke="#000000" stroke-width="0.5"/>

  <text x="27" y="427" font-family="Merriweather,sans-serif" font-size="6.5" font-weight="700" fill="#000000">NOTES</text>
  <rect x="27" y="430" width="306" height="13" fill="#FFFFFF" stroke="#000000" stroke-width="0.5"/>

  <!-- ADDITIONAL NOTES box -->
  <rect x="27" y="449" width="306" height="12" fill="#333333"/>
  <text x="180" y="458" font-family="Merriweather,sans-serif" font-size="7" font-weight="700" fill="#FFFFFF" text-anchor="middle">ADDITIONAL NOTES</text>
  <rect x="27" y="461" width="306" height="50" fill="#FFFFFF" stroke="#000000" stroke-width="0.75"/>
  <line x1="27" y1="474" x2="333" y2="474" stroke="#CCCCCC" stroke-width="0.5"/>
  <line x1="27" y1="487" x2="333" y2="487" stroke="#CCCCCC" stroke-width="0.5"/>
  <line x1="27" y1="500" x2="333" y2="500" stroke="#CCCCCC" stroke-width="0.5"/>

  <!-- Page number -->
  <text x="180" y="518" font-family="Merriweather,sans-serif" font-size="7" fill="#000000" text-anchor="middle">___</text>
</svg>
