<svg xmlns="http://www.w3.org/2000/svg" width="612" height="792" viewBox="0 0 612 792">
  <defs>
    <style>
      @import url('https://fonts.googleapis.com/css2?family=Open+Sans:wght@400;600;700&amp;display=swap');
      text { font-family: 'Open Sans', sans-serif; }
    </style>
  </defs>

  <!-- Page background -->
  <rect width="612" height="792" fill="#FFFFFF"/>

  <!-- Header bar -->
  <rect x="27" y="54" width="558" height="24" fill="#000000"/>
  <text x="306" y="71" font-family="'Open Sans',sans-serif" font-size="11" font-weight="700" fill="#FFFFFF" text-anchor="middle">BLIND TASTING PRACTICE SCORESHEET</text>

  <!-- Session info bar -->
  <rect x="27" y="78" width="558" height="18" fill="#333333"/>
  <text x="33" y="91" font-family="'Open Sans',sans-serif" font-size="8" font-weight="700" fill="#FFFFFF">SESSION INFO</text>

  <!-- Session fields -->
  <rect x="27" y="96" width="558" height="18" fill="#F0F0F0"/>
  <text x="33" y="109" font-family="'Open Sans',sans-serif" font-size="7.5" font-weight="700" fill="#000000">Date:</text>
  <rect x="55" y="98" width="80" height="13" fill="#FFFFFF" stroke="#000000" stroke-width="0.75"/>
  <text x="143" y="109" font-family="'Open Sans',sans-serif" font-size="7.5" font-weight="700" fill="#000000">Session #:</text>
  <rect x="186" y="98" width="40" height="13" fill="#FFFFFF" stroke="#000000" stroke-width="0.75"/>
  <text x="232" y="109" font-family="'Open Sans',sans-serif" font-size="7.5" font-weight="700" fill="#000000">Wine #:</text>
  <rect x="266" y="98" width="30" height="13" fill="#FFFFFF" stroke="#000000" stroke-width="0.75"/>
  <text x="303" y="109" font-family="'Open Sans',sans-serif" font-size="7.5" font-weight="700" fill="#000000">Glass Code:</text>
  <rect x="352" y="98" width="60" height="13" fill="#FFFFFF" stroke="#000000" stroke-width="0.75"/>
  <text x="420" y="109" font-family="'Open Sans',sans-serif" font-size="7.5" font-weight="700" fill="#000000">Served Temp:</text>
  <rect x="477" y="98" width="108" height="13" fill="#FFFFFF" stroke="#000000" stroke-width="0.75"/>

  <!-- PHASE 1: ASSESSMENT -->
  <rect x="27" y="119" width="558" height="16" fill="#333333"/>
  <text x="33" y="131" font-family="'Open Sans',sans-serif" font-size="8.5" font-weight="700" fill="#FFFFFF">PHASE 1 — ASSESSMENT (Complete before looking up the wine)</text>

  <!-- APPEARANCE compact -->
  <rect x="27" y="135" width="558" height="14" fill="#F0F0F0"/>
  <text x="33" y="145" font-family="'Open Sans',sans-serif" font-size="7.5" font-weight="700" fill="#000000">APPEARANCE</text>
  <text x="105" y="145" font-family="'Open Sans',sans-serif" font-size="7" fill="#000000">Color:</text>
  <rect x="124" y="137" width="90" height="11" fill="#FFFFFF" stroke="#000000" stroke-width="0.75"/>
  <text x="220" y="145" font-family="'Open Sans',sans-serif" font-size="7" fill="#000000">Intensity:</text>
  <text x="259" y="145" font-family="'Open Sans',sans-serif" font-size="7" fill="#000000">Pale</text>
  <rect x="274" y="137" width="7" height="7" fill="#FFFFFF" stroke="#000000" stroke-width="0.75"/>
  <text x="284" y="145" font-family="'Open Sans',sans-serif" font-size="7" fill="#000000">Medium</text>
  <rect x="312" y="137" width="7" height="7" fill="#FFFFFF" stroke="#000000" stroke-width="0.75"/>
  <text x="322" y="145" font-family="'Open Sans',sans-serif" font-size="7" fill="#000000">Deep</text>
  <rect x="340" y="137" width="7" height="7" fill="#FFFFFF" stroke="#000000" stroke-width="0.75"/>
  <text x="354" y="145" font-family="'Open Sans',sans-serif" font-size="7" fill="#000000">Clarity:</text>
  <text x="382" y="145" font-family="'Open Sans',sans-serif" font-size="7" fill="#000000">Clear</text>
  <rect x="398" y="137" width="7" height="7" fill="#FFFFFF" stroke="#000000" stroke-width="0.75"/>
  <text x="408" y="145" font-family="'Open Sans',sans-serif" font-size="7" fill="#000000">Hazy</text>
  <rect x="424" y="137" width="7" height="7" fill="#FFFFFF" stroke="#000000" stroke-width="0.75"/>

  <!-- NOSE compact -->
  <rect x="27" y="149" width="558" height="14" fill="#FFFFFF"/>
  <text x="33" y="159" font-family="'Open Sans',sans-serif" font-size="7.5" font-weight="700" fill="#000000">NOSE</text>
  <text x="62" y="159" font-family="'Open Sans',sans-serif" font-size="7" fill="#000000">Aromas:</text>
  <rect x="95" y="151" width="250" height="11" fill="#FFFFFF" stroke="#000000" stroke-width="0.75"/>
  <text x="351" y="159" font-family="'Open Sans',sans-serif" font-size="7" fill="#000000">Intensity:</text>
  <text x="389" y="159" font-family="'Open Sans',sans-serif" font-size="7" fill="#000000">Light</text>
  <rect x="405" y="151" width="7" height="7" fill="#FFFFFF" stroke="#000000" stroke-width="0.75"/>
  <text x="415" y="159" font-family="'Open Sans',sans-serif" font-size="7" fill="#000000">Med</text>
  <rect x="430" y="151" width="7" height="7" fill="#FFFFFF" stroke="#000000" stroke-width="0.75"/>
  <text x="440" y="159" font-family="'Open Sans',sans-serif" font-size="7" fill="#000000">Proncd</text>
  <rect x="467" y="151" width="7" height="7" fill="#FFFFFF" stroke="#000000" stroke-width="0.75"/>

  <!-- PALATE compact row 1 -->
  <rect x="27" y="163" width="558" height="14" fill="#F0F0F0"/>
  <text x="33" y="173" font-family="'Open Sans',sans-serif" font-size="7.5" font-weight="700" fill="#000000">PALATE</text>
  <text x="72" y="173" font-family="'Open Sans',sans-serif" font-size="7" fill="#000000">Sweet:</text>
  <text x="97" y="173" font-family="'Open Sans',sans-serif" font-size="7" fill="#000000">Dry</text>
  <rect x="108" y="165" width="7" height="7" fill="#FFFFFF" stroke="#000000" stroke-width="0.75"/>
  <text x="118" y="173" font-family="'Open Sans',sans-serif" font-size="7" fill="#000000">Off-Dry</text>
  <rect x="143" y="165" width="7" height="7" fill="#FFFFFF" stroke="#000000" stroke-width="0.75"/>
  <text x="153" y="173" font-family="'Open Sans',sans-serif" font-size="7" fill="#000000">Sweet</text>
  <rect x="174" y="165" width="7" height="7" fill="#FFFFFF" stroke="#000000" stroke-width="0.75"/>
  <text x="188" y="173" font-family="'Open Sans',sans-serif" font-size="7" fill="#000000">Acid:</text>
  <text x="209" y="173" font-family="'Open Sans',sans-serif" font-size="7" fill="#000000">Low</text>
  <rect x="222" y="165" width="7" height="7" fill="#FFFFFF" stroke="#000000" stroke-width="0.75"/>
  <text x="232" y="173" font-family="'Open Sans',sans-serif" font-size="7" fill="#000000">Med</text>
  <rect x="247" y="165" width="7" height="7" fill="#FFFFFF" stroke="#000000" stroke-width="0.75"/>
  <text x="257" y="173" font-family="'Open Sans',sans-serif" font-size="7" fill="#000000">High</text>
  <rect x="271" y="165" width="7" height="7" fill="#FFFFFF" stroke="#000000" stroke-width="0.75"/>
  <text x="285" y="173" font-family="'Open Sans',sans-serif" font-size="7" fill="#000000">Tannin:</text>
  <text x="313" y="173" font-family="'Open Sans',sans-serif" font-size="7" fill="#000000">Low</text>
  <rect x="326" y="165" width="7" height="7" fill="#FFFFFF" stroke="#000000" stroke-width="0.75"/>
  <text x="336" y="173" font-family="'Open Sans',sans-serif" font-size="7" fill="#000000">Med</text>
  <rect x="351" y="165" width="7" height="7" fill="#FFFFFF" stroke="#000000" stroke-width="0.75"/>
  <text x="361" y="173" font-family="'Open Sans',sans-serif" font-size="7" fill="#000000">High</text>
  <rect x="375" y="165" width="7" height="7" fill="#FFFFFF" stroke="#000000" stroke-width="0.75"/>
  <text x="388" y="173" font-family="'Open Sans',sans-serif" font-size="7" fill="#000000">Body:</text>
  <text x="410" y="173" font-family="'Open Sans',sans-serif" font-size="7" fill="#000000">Light</text>
  <rect x="425" y="165" width="7" height="7" fill="#FFFFFF" stroke="#000000" stroke-width="0.75"/>
  <text x="435" y="173" font-family="'Open Sans',sans-serif" font-size="7" fill="#000000">Med</text>
  <rect x="450" y="165" width="7" height="7" fill="#FFFFFF" stroke="#000000" stroke-width="0.75"/>
  <text x="460" y="173" font-family="'Open Sans',sans-serif" font-size="7" fill="#000000">Full</text>
  <rect x="472" y="165" width="7" height="7" fill="#FFFFFF" stroke="#000000" stroke-width="0.75"/>

  <!-- PALATE row 2 -->
  <rect x="27" y="177" width="558" height="14" fill="#FFFFFF"/>
  <text x="33" y="187" font-family="'Open Sans',sans-serif" font-size="7" fill="#000000">Flavors:</text>
  <rect x="62" y="178" width="300" height="12" fill="#FFFFFF" stroke="#000000" stroke-width="0.75"/>
  <text x="368" y="187" font-family="'Open Sans',sans-serif" font-size="7" fill="#000000">Finish:</text>
  <text x="390" y="187" font-family="'Open Sans',sans-serif" font-size="7" fill="#000000">Short</text>
  <rect x="408" y="179" width="7" height="7" fill="#FFFFFF" stroke="#000000" stroke-width="0.75"/>
  <text x="418" y="187" font-family="'Open Sans',sans-serif" font-size="7" fill="#000000">Med</text>
  <rect x="433" y="179" width="7" height="7" fill="#FFFFFF" stroke="#000000" stroke-width="0.75"/>
  <text x="443" y="187" font-family="'Open Sans',sans-serif" font-size="7" fill="#000000">Long</text>
  <rect x="460" y="179" width="7" height="7" fill="#FFFFFF" stroke="#000000" stroke-width="0.75"/>

  <!-- MY CONCLUSIONS -->
  <rect x="27" y="196" width="558" height="16" fill="#333333"/>
  <text x="33" y="208" font-family="'Open Sans',sans-serif" font-size="8.5" font-weight="700" fill="#FFFFFF">PHASE 2 — MY CONCLUSIONS (Write your deductions before revealing the wine)</text>

  <!-- Two column layout for conclusions -->
  <!-- Left column -->
  <rect x="27" y="212" width="275" height="14" fill="#F0F0F0" stroke="#000000" stroke-width="0.5"/>
  <text x="33" y="222" font-family="'Open Sans',sans-serif" font-size="7.5" font-weight="700" fill="#000000">Wine Style:</text>
  <text x="92" y="222" font-family="'Open Sans',sans-serif" font-size="7" fill="#000000">White</text>
  <rect x="109" y="214" width="7" height="7" fill="#FFFFFF" stroke="#000000" stroke-width="0.75"/>
  <text x="119" y="222" font-family="'Open Sans',sans-serif" font-size="7" fill="#000000">Red</text>
  <rect x="130" y="214" width="7" height="7" fill="#FFFFFF" stroke="#000000" stroke-width="0.75"/>
  <text x="140" y="222" font-family="'Open Sans',sans-serif" font-size="7" fill="#000000">Rose</text>
  <rect x="157" y="214" width="7" height="7" fill="#FFFFFF" stroke="#000000" stroke-width="0.75"/>
  <text x="167" y="222" font-family="'Open Sans',sans-serif" font-size="7" fill="#000000">Sparkling</text>
  <rect x="201" y="214" width="7" height="7" fill="#FFFFFF" stroke="#000000" stroke-width="0.75"/>
  <text x="211" y="222" font-family="'Open Sans',sans-serif" font-size="7" fill="#000000">Fortified</text>
  <rect x="245" y="214" width="7" height="7" fill="#FFFFFF" stroke="#000000" stroke-width="0.75"/>

  <!-- Right column -->
  <rect x="310" y="212" width="275" height="14" fill="#F0F0F0" stroke="#000000" stroke-width="0.5"/>
  <text x="316" y="222" font-family="'Open Sans',sans-serif" font-size="7.5" font-weight="700" fill="#000000">Climate:</text>
  <text x="350" y="222" font-family="'Open Sans',sans-serif" font-size="7" fill="#000000">Cool</text>
  <rect x="365" y="214" width="7" height="7" fill="#FFFFFF" stroke="#000000" stroke-width="0.75"/>
  <text x="375" y="222" font-family="'Open Sans',sans-serif" font-size="7" fill="#000000">Moderate</text>
  <rect x="411" y="214" width="7" height="7" fill="#FFFFFF" stroke="#000000" stroke-width="0.75"/>
  <text x="421" y="222" font-family="'Open Sans',sans-serif" font-size="7" fill="#000000">Warm</text>
  <rect x="443" y="214" width="7" height="7" fill="#FFFFFF" stroke="#000000" stroke-width="0.75"/>
  <text x="453" y="222" font-family="'Open Sans',sans-serif" font-size="7" fill="#000000">Hot</text>
  <rect x="463" y="214" width="7" height="7" fill="#FFFFFF" stroke="#000000" stroke-width="0.75"/>

  <!-- Grape variety -->
  <rect x="27" y="226" width="558" height="14" fill="#FFFFFF" stroke="#000000" stroke-width="0.5"/>
  <text x="33" y="236" font-family="'Open Sans',sans-serif" font-size="7.5" font-weight="700" fill="#000000">Grape Variety (1st guess):</text>
  <rect x="145" y="228" width="135" height="11" fill="#FFFFFF" stroke="#000000" stroke-width="0.75"/>
  <text x="286" y="236" font-family="'Open Sans',sans-serif" font-size="7.5" font-weight="700" fill="#000000">Grape Variety (2nd guess):</text>
  <rect x="398" y="228" width="187" height="11" fill="#FFFFFF" stroke="#000000" stroke-width="0.75"/>

  <!-- Country / Region -->
  <rect x="27" y="240" width="558" height="14" fill="#F0F0F0" stroke="#000000" stroke-width="0.5"/>
  <text x="33" y="250" font-family="'Open Sans',sans-serif" font-size="7.5" font-weight="700" fill="#000000">Country:</text>
  <rect x="72" y="242" width="120" height="11" fill="#FFFFFF" stroke="#000000" stroke-width="0.75"/>
  <text x="197" y="250" font-family="'Open Sans',sans-serif" font-size="7.5" font-weight="700" fill="#000000">Region:</text>
  <rect x="225" y="242" width="130" height="11" fill="#FFFFFF" stroke="#000000" stroke-width="0.75"/>
  <text x="360" y="250" font-family="'Open Sans',sans-serif" font-size="7.5" font-weight="700" fill="#000000">Appellation:</text>
  <rect x="408" y="242" width="177" height="11" fill="#FFFFFF" stroke="#000000" stroke-width="0.75"/>

  <!-- Vintage / Production -->
  <rect x="27" y="254" width="558" height="14" fill="#FFFFFF" stroke="#000000" stroke-width="0.5"/>
  <text x="33" y="264" font-family="'Open Sans',sans-serif" font-size="7.5" font-weight="700" fill="#000000">Vintage (estimate):</text>
  <rect x="125" y="256" width="60" height="11" fill="#FFFFFF" stroke="#000000" stroke-width="0.75"/>
  <text x="190" y="264" font-family="'Open Sans',sans-serif" font-size="7.5" font-weight="700" fill="#000000">Oak Treatment:</text>
  <text x="261" y="264" font-family="'Open Sans',sans-serif" font-size="7" fill="#000000">None</text>
  <rect x="277" y="256" width="7" height="7" fill="#FFFFFF" stroke="#000000" stroke-width="0.75"/>
  <text x="287" y="264" font-family="'Open Sans',sans-serif" font-size="7" fill="#000000">Some</text>
  <rect x="306" y="256" width="7" height="7" fill="#FFFFFF" stroke="#000000" stroke-width="0.75"/>
  <text x="316" y="264" font-family="'Open Sans',sans-serif" font-size="7" fill="#000000">Definite</text>
  <rect x="346" y="256" width="7" height="7" fill="#FFFFFF" stroke="#000000" stroke-width="0.75"/>
  <text x="360" y="264" font-family="'Open Sans',sans-serif" font-size="7.5" font-weight="700" fill="#000000">Price Est.:</text>
  <text x="400" y="264" font-family="'Open Sans',sans-serif" font-size="7" fill="#000000">$</text>
  <rect x="406" y="256" width="60" height="11" fill="#FFFFFF" stroke="#000000" stroke-width="0.75"/>
  <text x="471" y="264" font-family="'Open Sans',sans-serif" font-size="7.5" font-weight="700" fill="#000000">Quality Est.:</text>
  <rect x="521" y="256" width="64" height="11" fill="#FFFFFF" stroke="#000000" stroke-width="0.75"/>

  <!-- Reasoning box -->
  <rect x="27" y="273" width="558" height="14" fill="#F0F0F0" stroke="#000000" stroke-width="0.5"/>
  <text x="33" y="283" font-family="'Open Sans',sans-serif" font-size="7.5" font-weight="700" fill="#000000">Reasoning (key evidence for your deductions):</text>
  <rect x="27" y="287" width="558" height="56" fill="#FFFFFF" stroke="#000000" stroke-width="0.75"/>
  <line x1="33" y1="300" x2="579" y2="300" stroke="#CCCCCC" stroke-width="0.5"/>
  <line x1="33" y1="313" x2="579" y2="313" stroke="#CCCCCC" stroke-width="0.5"/>
  <line x1="33" y1="326" x2="579" y2="326" stroke="#CCCCCC" stroke-width="0.5"/>
  <line x1="33" y1="339" x2="579" y2="339" stroke="#CCCCCC" stroke-width="0.5"/>

  <!-- PHASE 3: REVEAL -->
  <rect x="27" y="348" width="558" height="16" fill="#333333"/>
  <text x="33" y="360" font-family="'Open Sans',sans-serif" font-size="8.5" font-weight="700" fill="#FFFFFF">PHASE 3 — THE REVEAL (Fill in after the wine is identified)</text>

  <!-- Actual wine details -->
  <rect x="27" y="364" width="558" height="14" fill="#F0F0F0" stroke="#000000" stroke-width="0.5"/>
  <text x="33" y="374" font-family="'Open Sans',sans-serif" font-size="7.5" font-weight="700" fill="#000000">Actual Wine / Producer:</text>
  <rect x="145" y="366" width="200" height="11" fill="#FFFFFF" stroke="#000000" stroke-width="0.75"/>
  <text x="350" y="374" font-family="'Open Sans',sans-serif" font-size="7.5" font-weight="700" fill="#000000">Vintage:</text>
  <rect x="385" y="366" width="50" height="11" fill="#FFFFFF" stroke="#000000" stroke-width="0.75"/>
  <text x="440" y="374" font-family="'Open Sans',sans-serif" font-size="7.5" font-weight="700" fill="#000000">RRP:</text>
  <text x="457" y="374" font-family="'Open Sans',sans-serif" font-size="7" fill="#000000">$</text>
  <rect x="463" y="366" width="122" height="11" fill="#FFFFFF" stroke="#000000" stroke-width="0.75"/>

  <rect x="27" y="378" width="558" height="14" fill="#FFFFFF" stroke="#000000" stroke-width="0.5"/>
  <text x="33" y="388" font-family="'Open Sans',sans-serif" font-size="7.5" font-weight="700" fill="#000000">Actual Grape(s):</text>
  <rect x="108" y="380" width="150" height="11" fill="#FFFFFF" stroke="#000000" stroke-width="0.75"/>
  <text x="264" y="388" font-family="'Open Sans',sans-serif" font-size="7.5" font-weight="700" fill="#000000">Region / Appellation:</text>
  <rect x="360" y="380" width="225" height="11" fill="#FFFFFF" stroke="#000000" stroke-width="0.75"/>

  <!-- SCORING TABLE -->
  <rect x="27" y="397" width="558" height="16" fill="#333333"/>
  <text x="33" y="409" font-family="'Open Sans',sans-serif" font-size="8.5" font-weight="700" fill="#FFFFFF">PHASE 4 — SCORING &amp; SELF-EVALUATION</text>

  <!-- Score table headers -->
  <rect x="27" y="413" width="558" height="14" fill="#F0F0F0" stroke="#000000" stroke-width="0.75"/>
  <text x="33" y="423" font-family="'Open Sans',sans-serif" font-size="7" font-weight="700" fill="#000000">Category</text>
  <text x="190" y="423" font-family="'Open Sans',sans-serif" font-size="7" font-weight="700" fill="#000000">My Answer</text>
  <text x="320" y="423" font-family="'Open Sans',sans-serif" font-size="7" font-weight="700" fill="#000000">Correct Answer</text>
  <text x="450" y="423" font-family="'Open Sans',sans-serif" font-size="7" font-weight="700" fill="#000000">Points (0/1/2)</text>
  <line x1="180" y1="413" x2="180" y2="538" stroke="#000000" stroke-width="0.5"/>
  <line x1="315" y1="413" x2="315" y2="538" stroke="#000000" stroke-width="0.5"/>
  <line x1="445" y1="413" x2="445" y2="538" stroke="#000000" stroke-width="0.5"/>

  <!-- Score rows -->
  <rect x="27" y="427" width="558" height="14" fill="#FFFFFF" stroke="#000000" stroke-width="0.5"/>
  <text x="33" y="437" font-family="'Open Sans',sans-serif" font-size="7" fill="#000000">Grape Variety</text>
  <rect x="183" y="429" width="129" height="10" fill="#FFFFFF" stroke="none"/>
  <rect x="318" y="429" width="124" height="10" fill="#FFFFFF" stroke="none"/>
  <rect x="448" y="429" width="134" height="10" fill="#FFFFFF" stroke="none"/>

  <rect x="27" y="441" width="558" height="14" fill="#F0F0F0" stroke="#000000" stroke-width="0.5"/>
  <text x="33" y="451" font-family="'Open Sans',sans-serif" font-size="7" fill="#000000">Country</text>

  <rect x="27" y="455" width="558" height="14" fill="#FFFFFF" stroke="#000000" stroke-width="0.5"/>
  <text x="33" y="465" font-family="'Open Sans',sans-serif" font-size="7" fill="#000000">Region / Appellation</text>

  <rect x="27" y="469" width="558" height="14" fill="#F0F0F0" stroke="#000000" stroke-width="0.5"/>
  <text x="33" y="479" font-family="'Open Sans',sans-serif" font-size="7" fill="#000000">Vintage (within 2 years)</text>

  <rect x="27" y="483" width="558" height="14" fill="#FFFFFF" stroke="#000000" stroke-width="0.5"/>
  <text x="33" y="493" font-family="'Open Sans',sans-serif" font-size="7" fill="#000000">Oak Treatment</text>

  <rect x="27" y="497" width="558" height="14" fill="#F0F0F0" stroke="#000000" stroke-width="0.5"/>
  <text x="33" y="507" font-family="'Open Sans',sans-serif" font-size="7" fill="#000000">Quality Assessment</text>

  <rect x="27" y="511" width="558" height="14" fill="#FFFFFF" stroke="#000000" stroke-width="0.5"/>
  <text x="33" y="521" font-family="'Open Sans',sans-serif" font-size="7" fill="#000000">Climate / Style</text>

  <!-- Total row -->
  <rect x="27" y="525" width="558" height="14" fill="#333333" stroke="#000000" stroke-width="0.75"/>
  <text x="33" y="535" font-family="'Open Sans',sans-serif" font-size="7.5" font-weight="700" fill="#FFFFFF">TOTAL SCORE</text>
  <text x="190" y="535" font-family="'Open Sans',sans-serif" font-size="7" fill="#FFFFFF">/ 14 points</text>
  <rect x="448" y="527" width="134" height="10" fill="#FFFFFF" stroke="#FFFFFF" stroke-width="0.5"/>

  <!-- REFLECTION -->
  <rect x="27" y="544" width="558" height="14" fill="#333333"/>
  <text x="33" y="556" font-family="'Open Sans',sans-serif" font-size="8.5" font-weight="700" fill="#FFFFFF">PHASE 5 — REFLECTION &amp; LEARNING NOTES</text>

  <!-- What I got right -->
  <rect x="27" y="558" width="275" height="12" fill="#F0F0F0" stroke="#000000" stroke-width="0.5"/>
  <text x="33" y="568" font-family="'Open Sans',sans-serif" font-size="7.5" font-weight="700" fill="#000000">What I identified correctly:</text>
  <rect x="27" y="570" width="275" height="56" fill="#FFFFFF" stroke="#000000" stroke-width="0.75"/>
  <line x1="33" y1="582" x2="296" y2="582" stroke="#CCCCCC" stroke-width="0.5"/>
  <line x1="33" y1="595" x2="296" y2="595" stroke="#CCCCCC" stroke-width="0.5"/>
  <line x1="33" y1="608" x2="296" y2="608" stroke="#CCCCCC" stroke-width="0.5"/>
  <line x1="33" y1="621" x2="296" y2="621" stroke="#CCCCCC" stroke-width="0.5"/>

  <!-- What I got wrong -->
  <rect x="310" y="558" width="275" height="12" fill="#F0F0F0" stroke="#000000" stroke-width="0.5"/>
  <text x="316" y="568" font-family="'Open Sans',sans-serif" font-size="7.5" font-weight="700" fill="#000000">What I need to work on:</text>
  <rect x="310" y="570" width="275" height="56" fill="#FFFFFF" stroke="#000000" stroke-width="0.75"/>
  <line x1="316" y1="582" x2="579" y2="582" stroke="#CCCCCC" stroke-width="0.5"/>
  <line x1="316" y1="595" x2="579" y2="595" stroke="#CCCCCC" stroke-width="0.5"/>
  <line x1="316" y1="608" x2="579" y2="608" stroke="#CCCCCC" stroke-width="0.5"/>
  <line x1="316" y1="621" x2="579" y2="621" stroke="#CCCCCC" stroke-width="0.5"/>

  <!-- Key lesson -->
  <rect x="27" y="631" width="558" height="12" fill="#F0F0F0" stroke="#000000" stroke-width="0.5"/>
  <text x="33" y="641" font-family="'Open Sans',sans-serif" font-size="7.5" font-weight="700" fill="#000000">Key lesson from this wine:</text>
  <rect x="27" y="643" width="558" height="28" fill="#FFFFFF" stroke="#000000" stroke-width="0.75"/>
  <line x1="33" y1="656" x2="579" y2="656" stroke="#CCCCCC" stroke-width="0.5"/>
  <line x1="33" y1="668" x2="579" y2="668" stroke="#CCCCCC" stroke-width="0.5"/>

  <!-- Outer border -->
  <rect x="27" y="54" width="558" height="617" fill="none" stroke="#000000" stroke-width="1"/>

  <!-- Page number -->
  <text x="306" y="752" font-family="'Open Sans',sans-serif" font-size="8" fill="#000000" text-anchor="middle">___</text>
</svg>
